<?xml version="1.0" encoding="UTF-8" standalone="no"?>
<!-- Created with Inkscape (http://www.inkscape.org/) -->

<svg
   xmlns:dc="http://purl.org/dc/elements/1.1/"
   xmlns:cc="http://creativecommons.org/ns#"
   xmlns:rdf="http://www.w3.org/1999/02/22-rdf-syntax-ns#"
   xmlns:svg="http://www.w3.org/2000/svg"
   xmlns="http://www.w3.org/2000/svg"
   xmlns:sodipodi="http://sodipodi.sourceforge.net/DTD/sodipodi-0.dtd"
   xmlns:inkscape="http://www.inkscape.org/namespaces/inkscape"
   width="173.50406"
   height="145.66747"
   id="svg3176"
   version="1.1"
   inkscape:version="0.48.1 "
   sodipodi:docname="A28tangents.svg">
  <defs
     id="defs3178" />
  <sodipodi:namedview
     id="base"
     pagecolor="#ffffff"
     bordercolor="#666666"
     borderopacity="1.0"
     inkscape:pageopacity="0.0"
     inkscape:pageshadow="2"
     inkscape:zoom="2.8"
     inkscape:cx="16.307934"
     inkscape:cy="54.178757"
     inkscape:document-units="px"
     inkscape:current-layer="layer1"
     showgrid="false"
     fit-margin-top="0"
     fit-margin-left="0"
     fit-margin-right="0"
     fit-margin-bottom="0"
     inkscape:window-width="1328"
     inkscape:window-height="1077"
     inkscape:window-x="1880"
     inkscape:window-y="87"
     inkscape:window-maximized="0" />
  <metadata
     id="metadata3181">
    <rdf:RDF>
      <cc:Work
         rdf:about="">
        <dc:format>image/svg+xml</dc:format>
        <dc:type
           rdf:resource="http://purl.org/dc/dcmitype/StillImage" />
        <dc:title></dc:title>
      </cc:Work>
    </rdf:RDF>
  </metadata>
  <g
     inkscape:label="Layer 1"
     inkscape:groupmode="layer"
     id="layer1"
     transform="translate(-407.30844,-342.40625)">
    <path
       inkscape:connector-curvature="0"
       style="fill:none;stroke:#000000;stroke-width:1"
       d="m 417.46266,426.88872 c -1.30734,1.98044 11.33831,-14.3419 12.10714,-15.47619 10.70386,-12.78453 22.15376,-19.65864 36.11905,-25.28572"
       id="path38"
       sodipodi:nodetypes="ccc" />
    <path
       inkscape:connector-curvature="0"
       style="fill:none;stroke:#000000;stroke-width:1"
       d="m 416.91504,427.76967 c 12.46213,-2.85009 26.60876,3.43548 38.91667,7 14.57246,5.15486 28.13964,15.18432 39.5,24.75 1.23534,0.60513 3.78651,7.37432 4.5,8.5"
       id="path40" />
    <path
       inkscape:connector-curvature="0"
       style="fill:none;stroke:#000000;stroke-width:1"
       d="m 499.91504,468.35301 c 5.66463,-10.24448 15.71156,-17.69201 27.33334,-22.66668 3.79411,-2.4073 16.9185,-7.60506 20.20237,-6.22618"
       id="path42"
       sodipodi:nodetypes="ccc" />
    <path
       inkscape:connector-curvature="0"
       style="fill:none;stroke:#000000;stroke-width:1"
       d="m 465.8198,386.54348 c 7.54919,0.84505 12.41026,0.83727 19.63095,-0.27381 17.22394,0.29281 31.39598,4.34404 43.13095,15.83334 11.21023,9.05585 15.4455,25.77299 19.33334,37.33332"
       id="path44"
       sodipodi:nodetypes="cccc" />
    <path
       inkscape:connector-curvature="0"
       style="fill:none;stroke:#000000;stroke-width:1"
       d="m 494.58171,408.76967 c -3.94593,-1.64046 3.82262,-4.47851 4.08333,-0.83334 1.557,5.71971 -12.15062,3.37168 -6.16667,-1.33332 3.86467,-0.49256 5.43403,-1.74092 4.5,3.91666"
       id="path48" />
    <path
       inkscape:connector-curvature="0"
       style="fill:none;stroke:#000000;stroke-width:1.5;stroke-miterlimit:4;stroke-dasharray:none"
       d="m 497.33171,406.85301 c 2.43171,-3.0836 2.1013,-11.17533 3.91666,-16.16667 2.9874,-11.40882 5.13936,-23.06414 9.33333,-34 -0.43301,0.6667 -4.31372,6.22603 -6.5,7.83333 1.46483,-1.2008 7.03898,-7.84998 6.25,-7.5 -0.11024,2.20686 3.13171,7.64689 2.41668,8.08333 -2.12986,-2.18435 -7.87675,-0.78685 -8.91668,-0.91666 1.00129,-0.41753 6.33233,-0.42117 4.91668,-2"
       id="path50" />
    <path
       inkscape:connector-curvature="0"
       style="fill:none;stroke:#000000;stroke-width:1.5;stroke-miterlimit:4;stroke-dasharray:none"
       d="m 493.28408,410.37681 c -9.28119,4.23388 -26.97346,12.08571 -35.20237,15.9762 1.20505,-1.18667 4.69302,-7.04961 4.16666,-5.91668 -1.14683,1.9002 -5.35786,6.64446 -4.91666,7.33334 2.48113,-0.68281 9.09477,0.88186 9.25,-0.75 -1.70165,-2.5 -8.17449,-8.25432 -4.25,-1.33334 2.33495,4.13666 -4.66455,-0.98386 -3.08334,-1 0.0232,0.88212 1.11373,2.0015 1.5,1.91668"
       id="path52"
       sodipodi:nodetypes="cccccccc" />
    <path
       inkscape:connector-curvature="0"
       style="fill:none;stroke:#000000;stroke-width:1.5;stroke-miterlimit:4;stroke-dasharray:none"
       d="m 496.74837,411.10301 c 10.78738,5.45865 21.02071,13.65182 31.33333,20.41666 -0.61214,-2.59875 -6.86502,-6.82707 -5.83332,-7.91666 1.99116,1.52673 6.43576,6.51597 5.16666,8 -1.48303,-0.19612 -11.71282,-0.0377 -7.58334,-0.0833 4.44695,0.98572 3.65032,-10.83866 1.66668,-3.66666 -2.82074,9.84411 0.91002,-4.99337 -0.0833,-0.25"
       id="path54"
       sodipodi:nodetypes="ccccccc" />
    <path
       inkscape:connector-curvature="0"
       style="fill:none;stroke:#000000;stroke-width:1"
       d="m 531.81981,427.00776 c 1.18526,-0.15565 0.32089,-3.22677 0.58332,-4.91666"
       id="path56" />
    <path
       inkscape:connector-curvature="0"
       style="fill:none;stroke:#000000;stroke-width:1"
       d="m 535.01027,416.91253 c -0.008,-1.35389 1.44998,-3.3913 1.66668,-5.08334"
       id="path58" />
    <path
       inkscape:connector-curvature="0"
       style="fill:none;stroke:#000000;stroke-width:1"
       d="m 538.49838,406.85301 c -0.70444,-1.70625 0.0587,-3.61649 0.0833,-5.33334"
       id="path60" />
    <path
       inkscape:connector-curvature="0"
       style="fill:none;stroke:#000000;stroke-width:1"
       d="m 540.5579,398.81729 c 0.43308,-1.5434 0.13355,-3.20889 0.16666,-4.83333"
       id="path62" />
    <path
       inkscape:connector-curvature="0"
       style="fill:none;stroke:#000000;stroke-width:1"
       d="m 540.24838,388.26967 c 1.11249,-1.41795 1.56474,-3.36245 2.25,-4.83333"
       id="path64" />
    <path
       inkscape:connector-curvature="0"
       style="fill:none;stroke:#000000;stroke-width:1"
       d="m 543.8317,380.01967 c -0.11319,-0.14292 -0.0828,-0.40786 -0.0833,-0.66667"
       id="path66" />
    <path
       inkscape:connector-curvature="0"
       style="fill:none;stroke:#000000;stroke-width:1"
       d="m 515.16504,358.353 c 1.36836,-0.89302 1.51589,1.03909 2.75,0.83334"
       id="path68" />
    <path
       inkscape:connector-curvature="0"
       style="fill:none;stroke:#000000;stroke-width:1"
       d="m 525.3317,363.26967 c 0.75283,0.55233 2.30378,1.48823 3.66668,1.5"
       id="path70" />
    <path
       inkscape:connector-curvature="0"
       style="fill:none;stroke:#000000;stroke-width:1"
       d="m 536.49838,370.01967 c 1.73033,-0.50447 3.92088,1.14448 5.08332,2.33333"
       id="path72" />
    <path
       inkscape:connector-curvature="0"
       style="fill:none;stroke:#000000;stroke-width:1"
       d="m 546.24838,376.603 c 1.06241,-0.21738 0.79297,1.19654 1.25,1.75"
       id="path74" />
    <path
       inkscape:connector-curvature="0"
       style="fill:none;stroke:#000000;stroke-width:1.5;stroke-miterlimit:4;stroke-dasharray:none"
       d="m 498.74837,409.10301 c -3.41713,2.79647 5.50528,-3.39885 7.16667,-3.41668 14.07924,-6.84317 27.48475,-16.47305 39.91666,-24.66666 0.83133,-0.23042 -5.75331,1.03211 -7.08332,1.83333 -2.31724,1.02616 -7.06417,1.95769 -1.5,0.91667 1.90409,0.43022 9.88983,-5.49847 6.33332,-1.25 -1.48643,2.55326 -3.684,7.68274 -3.75,9.5 0.72313,-2.90944 -4.15284,-7.3799 -4,-8.16667 2.35314,1.80786 6.93815,0.0387 1.83334,1.5 -1.66757,-0.0688 4.94361,-4.36341 2.75,-0.75"
       id="path76" />
    <path
       inkscape:connector-curvature="0"
       style="fill:none;stroke:#000000;stroke-width:1"
       d="m 552.74838,378.28157 c 1.03121,-4.37237 -0.43307,-7.80734 4.26189,-4.90476 -1.26807,3.37998 0.79613,11.29066 4.58334,6.25 0.58681,-2.96132 -2.09472,-8.85602 3,-5.66667 3.42846,1.049 1.88997,0.38832 5.08334,0.84524"
       id="path78"
       sodipodi:nodetypes="ccccc" />
    <path
       inkscape:connector-curvature="0"
       style="fill:none;stroke:#000000;stroke-width:1"
       d="m 464.99837,343.103 c 0.22162,-1.5995 -0.49752,5.28506 -0.16666,6.5 -0.36609,13.22706 2.09535,24.57004 1.11904,36.84524"
       id="path80"
       sodipodi:nodetypes="ccc" />
    <path
       inkscape:connector-curvature="0"
       style="fill:none;stroke:#000000;stroke-width:1"
       d="m 464.99837,346.603 c -1.09169,-0.97468 -3.67471,5.55058 -5.58333,6.75 0.75311,0.32771 5.50879,-7.69647 5.5,-8 1.76907,1.82487 4.06139,3.49169 5,6"
       id="path82" />
    <path
       inkscape:connector-curvature="0"
       style="fill:none;stroke:#000000;stroke-width:1"
       d="m 465.36742,394.88871 c 0.51579,-1.10913 -0.67639,-2.65443 0.66666,-2.58333"
       id="path84" />
    <path
       inkscape:connector-curvature="0"
       style="fill:none;stroke:#000000;stroke-width:1"
       d="m 466.02218,402.60301 c 0.49445,4.86458 0.60205,-3.01083 -0.91667,-2.16668"
       id="path86" />
    <path
       inkscape:connector-curvature="0"
       style="fill:none;stroke:#000000;stroke-width:1"
       d="m 465.45075,413.30538 c -0.29441,-0.34923 0.16982,-1.99202 0.5,-2.41666"
       id="path88" />
    <path
       inkscape:connector-curvature="0"
       style="fill:none;stroke:#000000;stroke-width:1"
       d="m 466.3079,430.00776 c 0.29132,-2.16154 0.15564,3.2088 0.41667,2.5"
       id="path90" />
    <path
       inkscape:connector-curvature="0"
       style="fill:none;stroke:#000000;stroke-width:1"
       d="m 465.78408,438.74587 c 0.85489,-1.62227 0.43127,6.1678 0.5,8 0.17807,2.54454 0.38296,5.42174 1.16667,7.66666"
       id="path92" />
    <path
       inkscape:connector-curvature="0"
       style="fill:none;stroke:#000000;stroke-width:1"
       d="m 468.49837,455.10301 c -5.47199,-4.20806 -6.45245,6.94528 0.41667,4.66666 3.40212,-1.33252 -1.89584,-6.17627 -3.83333,-4.91666"
       id="path94" />
    <path
       inkscape:connector-curvature="0"
       style="fill:none;stroke:#000000;stroke-width:1"
       d="m 467.49837,457.93633 c -1.62941,0.37104 4.57422,0.1847 6.33334,1 7.01519,2.91566 14.63677,5.28692 21.91666,6.25 0.54513,0.12693 1.39333,0.61748 1.66667,0.75"
       id="path96" />
    <path
       inkscape:connector-curvature="0"
       style="fill:none;stroke:#000000;stroke-width:1"
       d="m 499.58171,467.18633 c 12.74621,3.23001 25.79541,7.00163 38.58333,10.16668 3.38487,2.25556 10.91525,3.4858 12.41666,3.58332 -1.07386,-0.96734 -4.72126,-4.83162 -5.16666,-5.08332 5.58365,2.08178 4.79258,6.91626 -0.83334,8.33332 -0.75997,0.44769 -1.4823,1.05139 -2.41666,1.08334"
       id="path98" />
    <path
       inkscape:connector-curvature="0"
       style="fill:none;stroke:#000000;stroke-width:1"
       d="m 464.83171,458.85301 c -6.6767,-0.19057 -14.21192,6.60595 -21.5,8.66666 -11.04444,5.2949 -21.67567,10.60377 -31.5,16.83334 -2.04975,2.15733 -5.42749,4.44862 -2.58334,-0.41668 0.51287,-3.21865 4.69955,-8.41438 1.5,-2.25 -1.68797,2.37243 -5.68358,7.59586 0.0833,5.33334 2.39494,-1.1265 12.25533,-0.33051 7.66666,-2.41666 -1.93531,-3.03196 -3.09355,-5.10137 -4.16666,-6.16668"
       id="path100" />
    <path
       inkscape:connector-curvature="0"
       style="fill:none;stroke:#000000;stroke-width:1"
       d="m 488.12987,357.42982 c 1.03121,-4.37237 -0.43307,-7.80734 4.26189,-4.90476 -1.26807,3.37998 0.79613,11.29066 4.58334,6.25 0.58681,-2.96132 -2.09472,-8.85602 3,-5.66667 3.42846,1.049 1.88997,0.38832 5.08334,0.84524"
       id="path78-1"
       sodipodi:nodetypes="ccccc" />
    <path
       inkscape:connector-curvature="0"
       style="fill:none;stroke:#000000;stroke-width:1"
       d="m 501.11797,349.27933 -6.28572,-4.85714 -5.61904,4.45237"
       id="path92-7"
       sodipodi:nodetypes="ccc" />
  </g>
</svg>
