<?xml version="1.0" encoding="UTF-8" standalone="no"?>
<!-- Created with Inkscape (http://www.inkscape.org/) -->

<svg
   xmlns:osb="http://www.openswatchbook.org/uri/2009/osb"
   xmlns:dc="http://purl.org/dc/elements/1.1/"
   xmlns:cc="http://creativecommons.org/ns#"
   xmlns:rdf="http://www.w3.org/1999/02/22-rdf-syntax-ns#"
   xmlns:svg="http://www.w3.org/2000/svg"
   xmlns="http://www.w3.org/2000/svg"
   xmlns:xlink="http://www.w3.org/1999/xlink"
   xmlns:sodipodi="http://sodipodi.sourceforge.net/DTD/sodipodi-0.dtd"
   xmlns:inkscape="http://www.inkscape.org/namespaces/inkscape"
   width="401.46875"
   height="221.62512"
   id="svg5320"
   version="1.1"
   inkscape:version="0.48.1 "
   sodipodi:docname="A29-2slices.pdf">
  <defs
     id="defs5322">
    <linearGradient
       id="linearGradient5655"
       osb:paint="solid">
      <stop
         style="stop-color:#ffffff;stop-opacity:1;"
         offset="0"
         id="stop5657" />
    </linearGradient>
    <pattern
       inkscape:collect="always"
       xlink:href="#Strips2_1"
       id="pattern5651"
       patternTransform="matrix(10,0,0,10,175.40625,-409.09375)" />
    <pattern
       inkscape:stockid="Stripes 2:1"
       id="Strips2_1"
       patternTransform="translate(0,0) scale(10,10)"
       height="1"
       width="1.5"
       patternUnits="userSpaceOnUse"
       inkscape:collect="always">
      <rect
         id="rect4978"
         height="2"
         width="1"
         y="-0.5"
         x="0"
         style="fill:black;stroke:none" />
    </pattern>
    <marker
       inkscape:stockid="Arrow1Mend"
       orient="auto"
       refY="0"
       refX="0"
       id="Arrow1Mend"
       style="overflow:visible">
      <path
         inkscape:connector-curvature="0"
         id="path4437"
         d="M 0,0 5,-5 -12.5,0 5,5 0,0 z"
         style="fill-rule:evenodd;stroke:#000000;stroke-width:1pt;marker-start:none"
         transform="matrix(-0.4,0,0,-0.4,-4,0)" />
    </marker>
    <marker
       inkscape:stockid="Arrow1Mend"
       orient="auto"
       refY="0"
       refX="0"
       id="Arrow1Mend-3"
       style="overflow:visible">
      <path
         inkscape:connector-curvature="0"
         id="path4437-9"
         d="M 0,0 5,-5 -12.5,0 5,5 0,0 z"
         style="fill-rule:evenodd;stroke:#000000;stroke-width:1pt;marker-start:none"
         transform="matrix(-0.4,0,0,-0.4,-4,0)" />
    </marker>
    <pattern
       patternUnits="userSpaceOnUse"
       width="132.1875"
       height="65.25"
       patternTransform="translate(-175.40625,409.09375)"
       id="pattern5648">
      <path
         sodipodi:nodetypes="ccccc"
         inkscape:connector-curvature="0"
         id="path3933-7-1-9"
         d="m 1.04727,36.72698 85.163763,27.93786 44.999997,-50 -84.0952,-14.14213 z"
         style="fill:url(#pattern5651);fill-opacity:1;stroke:#000056;stroke-width:1px;stroke-linecap:butt;stroke-linejoin:miter;stroke-opacity:1" />
    </pattern>
    <marker
       inkscape:stockid="Arrow1Mend"
       orient="auto"
       refY="0"
       refX="0"
       id="Arrow1Mend-9"
       style="overflow:visible">
      <path
         inkscape:connector-curvature="0"
         id="path4437-2"
         d="M 0,0 5,-5 -12.5,0 5,5 0,0 z"
         style="fill-rule:evenodd;stroke:#000000;stroke-width:1pt;marker-start:none"
         transform="matrix(-0.4,0,0,-0.4,-4,0)" />
    </marker>
    <marker
       inkscape:stockid="Arrow1Mend"
       orient="auto"
       refY="0"
       refX="0"
       id="Arrow1Mend-9-3"
       style="overflow:visible">
      <path
         inkscape:connector-curvature="0"
         id="path4437-2-7"
         d="M 0,0 5,-5 -12.5,0 5,5 0,0 z"
         style="fill-rule:evenodd;stroke:#000000;stroke-width:1pt;marker-start:none"
         transform="matrix(-0.4,0,0,-0.4,-4,0)" />
    </marker>
    <marker
       inkscape:stockid="Arrow1Mend"
       orient="auto"
       refY="0"
       refX="0"
       id="Arrow1Mend-9-0"
       style="overflow:visible">
      <path
         inkscape:connector-curvature="0"
         id="path4437-2-2"
         d="M 0,0 5,-5 -12.5,0 5,5 0,0 z"
         style="fill-rule:evenodd;stroke:#000000;stroke-width:1pt;marker-start:none"
         transform="matrix(-0.4,0,0,-0.4,-4,0)" />
    </marker>
    <marker
       inkscape:stockid="Arrow1Mend"
       orient="auto"
       refY="0"
       refX="0"
       id="Arrow1Mend-9-38"
       style="overflow:visible">
      <path
         inkscape:connector-curvature="0"
         id="path4437-2-22"
         d="M 0,0 5,-5 -12.5,0 5,5 0,0 z"
         style="fill-rule:evenodd;stroke:#000000;stroke-width:1pt;marker-start:none"
         transform="matrix(-0.4,0,0,-0.4,-4,0)" />
    </marker>
    <marker
       inkscape:stockid="Arrow1Mend"
       orient="auto"
       refY="0"
       refX="0"
       id="Arrow1Mend-9-385"
       style="overflow:visible">
      <path
         inkscape:connector-curvature="0"
         id="path4437-2-8"
         d="M 0,0 5,-5 -12.5,0 5,5 0,0 z"
         style="fill-rule:evenodd;stroke:#000000;stroke-width:1pt;marker-start:none"
         transform="matrix(-0.4,0,0,-0.4,-4,0)" />
    </marker>
    <marker
       inkscape:stockid="Arrow1Mend"
       orient="auto"
       refY="0"
       refX="0"
       id="Arrow1Mend-9-02"
       style="overflow:visible">
      <path
         inkscape:connector-curvature="0"
         id="path4437-2-6"
         d="M 0,0 5,-5 -12.5,0 5,5 0,0 z"
         style="fill-rule:evenodd;stroke:#000000;stroke-width:1pt;marker-start:none"
         transform="matrix(-0.4,0,0,-0.4,-4,0)" />
    </marker>
    <marker
       inkscape:stockid="Arrow1Mend"
       orient="auto"
       refY="0"
       refX="0"
       id="marker6501"
       style="overflow:visible">
      <path
         inkscape:connector-curvature="0"
         id="path6503"
         d="M 0,0 5,-5 -12.5,0 5,5 0,0 z"
         style="fill-rule:evenodd;stroke:#000000;stroke-width:1pt;marker-start:none"
         transform="matrix(-0.4,0,0,-0.4,-4,0)" />
    </marker>
    <marker
       inkscape:stockid="Arrow1Mend"
       orient="auto"
       refY="0"
       refX="0"
       id="marker6505"
       style="overflow:visible">
      <path
         inkscape:connector-curvature="0"
         id="path6507"
         d="M 0,0 5,-5 -12.5,0 5,5 0,0 z"
         style="fill-rule:evenodd;stroke:#000000;stroke-width:1pt;marker-start:none"
         transform="matrix(-0.4,0,0,-0.4,-4,0)" />
    </marker>
    <marker
       inkscape:stockid="Arrow1Mend"
       orient="auto"
       refY="0"
       refX="0"
       id="Arrow1Mend-9-2"
       style="overflow:visible">
      <path
         inkscape:connector-curvature="0"
         id="path4437-2-5"
         d="M 0,0 5,-5 -12.5,0 5,5 0,0 z"
         style="fill-rule:evenodd;stroke:#000000;stroke-width:1pt;marker-start:none"
         transform="matrix(-0.4,0,0,-0.4,-4,0)" />
    </marker>
    <marker
       inkscape:stockid="Arrow1Mend"
       orient="auto"
       refY="0"
       refX="0"
       id="Arrow1Mend-9-1"
       style="overflow:visible">
      <path
         inkscape:connector-curvature="0"
         id="path4437-2-71"
         d="M 0,0 5,-5 -12.5,0 5,5 0,0 z"
         style="fill-rule:evenodd;stroke:#000000;stroke-width:1pt;marker-start:none"
         transform="matrix(-0.4,0,0,-0.4,-4,0)" />
    </marker>
    <marker
       inkscape:stockid="Arrow1Mend"
       orient="auto"
       refY="0"
       refX="0"
       id="Arrow1Mend-9-1-0"
       style="overflow:visible">
      <path
         inkscape:connector-curvature="0"
         id="path4437-2-71-4"
         d="M 0,0 5,-5 -12.5,0 5,5 0,0 z"
         style="fill-rule:evenodd;stroke:#000000;stroke-width:1pt;marker-start:none"
         transform="matrix(-0.4,0,0,-0.4,-4,0)" />
    </marker>
  </defs>
  <sodipodi:namedview
     id="base"
     pagecolor="#ffffff"
     bordercolor="#666666"
     borderopacity="1.0"
     inkscape:pageopacity="0.0"
     inkscape:pageshadow="2"
     inkscape:zoom="1.979899"
     inkscape:cx="309.77055"
     inkscape:cy="158.09634"
     inkscape:document-units="px"
     inkscape:current-layer="layer1"
     showgrid="false"
     fit-margin-top="0"
     fit-margin-left="0"
     fit-margin-right="0"
     fit-margin-bottom="0"
     inkscape:window-width="1752"
     inkscape:window-height="969"
     inkscape:window-x="1501"
     inkscape:window-y="76"
     inkscape:window-maximized="0">
    <inkscape:grid
       type="xygrid"
       id="grid4083"
       empspacing="5"
       visible="true"
       enabled="true"
       snapvisiblegridlinesonly="true" />
  </sodipodi:namedview>
  <metadata
     id="metadata5325">
    <rdf:RDF>
      <cc:Work
         rdf:about="">
        <dc:format>image/svg+xml</dc:format>
        <dc:type
           rdf:resource="http://purl.org/dc/dcmitype/StillImage" />
        <dc:title></dc:title>
      </cc:Work>
    </rdf:RDF>
  </metadata>
  <g
     inkscape:label="Layer 1"
     inkscape:groupmode="layer"
     id="layer1"
     transform="translate(-108.5,-311.84363)">
    <rect
       style="fill:#f0f6fe;fill-opacity:0.8;stroke:#000056;stroke-width:0.5;stroke-miterlimit:4;stroke-opacity:1;stroke-dasharray:none"
       id="rect3111"
       width="84.34774"
       height="73.741135"
       x="331.01801"
       y="347.75894" />
    <rect
       style="fill:#fff6e5;fill-opacity:0.8;stroke:#000056;stroke-width:0.5;stroke-miterlimit:4;stroke-opacity:1;stroke-dasharray:none"
       id="rect3111-1"
       width="84.34774"
       height="73.741135"
       x="425.36575"
       y="347.75894" />
    <text
       xml:space="preserve"
       style="font-size:12px;font-style:normal;font-variant:normal;font-weight:normal;font-stretch:normal;line-height:125%;letter-spacing:0px;word-spacing:0px;fill:#000000;fill-opacity:1;stroke:none;font-family:Arial;-inkscape-font-specification:Arial"
       x="335.36575"
       y="362.75894"
       id="text3899"
       sodipodi:linespacing="125%"><tspan
         sodipodi:role="line"
         id="tspan3901"
         x="335.36575"
         y="362.75894">(1)</tspan></text>
    <text
       xml:space="preserve"
       style="font-size:12px;font-style:normal;font-variant:normal;font-weight:normal;font-stretch:normal;line-height:125%;letter-spacing:0px;word-spacing:0px;fill:#000000;fill-opacity:1;stroke:none;font-family:Arial;-inkscape-font-specification:Arial"
       x="490.36575"
       y="362.75894"
       id="text3903"
       sodipodi:linespacing="125%"><tspan
         sodipodi:role="line"
         id="tspan3905"
         x="490.36575"
         y="362.75894">(2)</tspan></text>
    <path
       sodipodi:type="arc"
       style="fill:#8d3333;fill-opacity:1;stroke:#000000;stroke-width:0.5;stroke-linecap:butt;stroke-linejoin:miter;stroke-miterlimit:4;stroke-opacity:1;stroke-dasharray:none"
       id="path5791-5-7-5-5-3"
       sodipodi:cx="105.93975"
       sodipodi:cy="69.428749"
       sodipodi:rx="2.1465743"
       sodipodi:ry="2.0203052"
       d="m 108.08632,69.428749 c 0,1.115784 -0.96105,2.020305 -2.14657,2.020305 -1.18552,0 -2.14657,-0.904521 -2.14657,-2.020305 0,-1.115784 0.96105,-2.020305 2.14657,-2.020305 1.18552,0 2.14657,0.904521 2.14657,2.020305 z"
       transform="matrix(0,-1,-1,0,484.79451,470.84528)" />
    <path
       style="fill:none;stroke:#0000cd;stroke-width:1;stroke-linecap:butt;stroke-linejoin:round;stroke-miterlimit:4;stroke-opacity:1;stroke-dasharray:none;marker-mid:url(#Arrow1Mend-9);marker-end:none"
       d="m 425.98427,394.78745 c 15.51137,6.40471 46.21826,13.45644 46.7712,-7.35429 1.19541,-7.3139 -13.0146,-21.43181 -46.99696,-23.05333"
       id="polyline364-8-6"
       inkscape:connector-curvature="0"
       sodipodi:nodetypes="ccc" />
    <path
       sodipodi:type="arc"
       style="fill:#8d3333;fill-opacity:1;stroke:#000000;stroke-width:0.5;stroke-linecap:butt;stroke-linejoin:miter;stroke-miterlimit:4;stroke-opacity:1;stroke-dasharray:none"
       id="path5791-5-7-5-5-8"
       sodipodi:cx="105.93975"
       sodipodi:cy="69.428749"
       sodipodi:rx="2.1465743"
       sodipodi:ry="2.0203052"
       d="m 108.08632,69.428749 c 0,1.115784 -0.96105,2.020305 -2.14657,2.020305 -1.18552,0 -2.14657,-0.904521 -2.14657,-2.020305 0,-1.115784 0.96105,-2.020305 2.14657,-2.020305 1.18552,0 2.14657,0.904521 2.14657,2.020305 z"
       transform="matrix(0,-1,-1,0,494.79451,470.84528)" />
    <path
       sodipodi:type="arc"
       style="fill:#8d3333;fill-opacity:1;stroke:#000000;stroke-width:0.5;stroke-linecap:butt;stroke-linejoin:miter;stroke-miterlimit:4;stroke-opacity:1;stroke-dasharray:none"
       id="path5791-5-7-5-5-5"
       sodipodi:cx="105.93975"
       sodipodi:cy="69.428749"
       sodipodi:rx="2.1465743"
       sodipodi:ry="2.0203052"
       d="m 108.08632,69.428749 c 0,1.115784 -0.96105,2.020305 -2.14657,2.020305 -1.18552,0 -2.14657,-0.904521 -2.14657,-2.020305 0,-1.115784 0.96105,-2.020305 2.14657,-2.020305 1.18552,0 2.14657,0.904521 2.14657,2.020305 z"
       transform="matrix(0,-1,-1,0,494.79451,500.84528)" />
    <path
       style="fill:#f0f6fe;fill-opacity:0.83597885;stroke:#000056;stroke-width:0.5;stroke-linecap:butt;stroke-linejoin:miter;stroke-miterlimit:4;stroke-opacity:1;stroke-dasharray:none"
       d="m 239.44227,415.87426 21.61165,58.68017 -36.87057,57.57868 -29.74108,-66.25885 z"
       id="path3933-5"
       inkscape:connector-curvature="0"
       sodipodi:nodetypes="ccccc" />
    <path
       style="fill:#fff6e5;fill-opacity:0.83597885;stroke:#000056;stroke-width:0.5;stroke-linecap:butt;stroke-linejoin:miter;stroke-miterlimit:4;stroke-opacity:1;stroke-dasharray:none"
       d="m 109.27851,437.9364 85.16376,27.93786 45,-50 -84.0952,-14.14213 z"
       id="path3933-7-1"
       inkscape:connector-curvature="0"
       sodipodi:nodetypes="ccccc" />
    <path
       style="fill:#fff6e5;fill-opacity:0.83597885;stroke:#000056;stroke-width:0.5;stroke-linecap:butt;stroke-linejoin:miter;stroke-miterlimit:4;stroke-opacity:1;stroke-dasharray:none"
       d="m 194.44227,465.87426 82.32743,24.74875 46.26269,-61.1117 -83.59012,-13.63705 z"
       id="path3933-7"
       inkscape:connector-curvature="0"
       sodipodi:nodetypes="ccccc" />
    <path
       style="fill:#df3131;fill-opacity:0.79894182;stroke:#000056;stroke-width:0.5;stroke-linecap:butt;stroke-linejoin:miter;stroke-miterlimit:4;stroke-opacity:1;stroke-dasharray:none"
       d="m 109.00325,437.86461 11.59233,4.00929 61.42857,-35.71429 -26.95234,-4.49927 z"
       id="path3933-7-1-2"
       inkscape:connector-curvature="0"
       sodipodi:nodetypes="ccccc" />
    <path
       style="fill:#f0f6fe;fill-opacity:0.83597885;stroke:#000056;stroke-width:0.5;stroke-linecap:butt;stroke-linejoin:miter;stroke-miterlimit:4;stroke-opacity:1;stroke-dasharray:none"
       d="m 212.5666,347.78029 26.87567,68.09397 -45,50 -35.56455,-76.8762 z"
       id="path3933"
       inkscape:connector-curvature="0"
       sodipodi:nodetypes="ccccc" />
    <path
       sodipodi:type="arc"
       style="fill:#faefef;fill-opacity:1;stroke:#000000;stroke-width:0.5;stroke-linecap:butt;stroke-linejoin:miter;stroke-miterlimit:4;stroke-opacity:1;stroke-dasharray:none"
       id="path5791-5-7-5"
       sodipodi:cx="105.93975"
       sodipodi:cy="69.428749"
       sodipodi:rx="2.1465743"
       sodipodi:ry="2.0203052"
       d="m 108.08632,69.428749 c 0,1.115784 -0.96105,2.020305 -2.14657,2.020305 -1.18552,0 -2.14657,-0.904521 -2.14657,-2.020305 0,-1.115784 0.96105,-2.020305 2.14657,-2.020305 1.18552,0 2.14657,0.904521 2.14657,2.020305 z"
       transform="matrix(0,-1,-1,0,272.03853,527.48418)" />
    <path
       style="fill:none;stroke:#000000;stroke-width:1.5;stroke-linecap:round;stroke-linejoin:round;stroke-miterlimit:4;stroke-dasharray:none;marker-end:url(#Arrow1Mend)"
       d="m 202.63189,421.59895 23.45037,-10.59584"
       id="polyline364-5-4-3"
       inkscape:connector-curvature="0"
       sodipodi:nodetypes="cc" />
    <text
       xml:space="preserve"
       style="font-size:12px;font-style:normal;font-variant:normal;font-weight:normal;font-stretch:normal;line-height:125%;letter-spacing:0px;word-spacing:0px;fill:#000000;fill-opacity:1;stroke:none;font-family:Arial;-inkscape-font-specification:Arial"
       x="198.05765"
       y="435.93546"
       id="text3029"
       sodipodi:linespacing="125%"><tspan
         sodipodi:role="line"
         id="tspan3031"
         x="198.05765"
         y="435.93546">x'1</tspan></text>
    <text
       xml:space="preserve"
       style="font-size:12px;font-style:normal;font-variant:normal;font-weight:normal;font-stretch:normal;line-height:125%;letter-spacing:0px;word-spacing:0px;fill:#000000;fill-opacity:1;stroke:none;font-family:Arial;-inkscape-font-specification:Arial"
       x="268.99332"
       y="458.66391"
       id="text3029-5"
       sodipodi:linespacing="125%"><tspan
         sodipodi:role="line"
         id="tspan3031-8"
         x="268.99332"
         y="458.66391">x'2</tspan></text>
    <text
       xml:space="preserve"
       style="font-size:12px;font-style:normal;font-variant:normal;font-weight:normal;font-stretch:normal;line-height:125%;letter-spacing:0px;word-spacing:0px;fill:#000000;fill-opacity:1;stroke:none;font-family:Arial;-inkscape-font-specification:Arial"
       x="408.86285"
       y="56.632858"
       id="text3899-1"
       sodipodi:linespacing="125%"
       transform="matrix(0.60466766,0.79647788,-0.79647788,0.60466766,0,0)"><tspan
         sodipodi:role="line"
         id="tspan3901-1"
         x="408.86285"
         y="56.632858">(1)</tspan></text>
    <text
       xml:space="preserve"
       style="font-size:12px;font-style:normal;font-variant:normal;font-weight:normal;font-stretch:normal;line-height:125%;letter-spacing:0px;word-spacing:0px;fill:#000000;fill-opacity:1;stroke:none;font-family:Arial;-inkscape-font-specification:Arial"
       x="513.8067"
       y="328.36417"
       id="text3903-5"
       sodipodi:linespacing="125%"
       transform="matrix(0.90229207,0.22465809,-0.51151562,0.98092836,0,0)"><tspan
         sodipodi:role="line"
         id="tspan3905-6"
         x="513.8067"
         y="328.36417">(2)</tspan></text>
    <path
       style="fill:none;stroke:#0000cd;stroke-width:1;stroke-linecap:butt;stroke-linejoin:round;stroke-miterlimit:4;stroke-opacity:1;stroke-dasharray:none;marker-mid:url(#Arrow1Mend-9);marker-end:none"
       d="m 179.26168,418.4915 c 3.28457,8.79735 6.16159,14.34898 13.26629,22.62658 3.45334,3.92717 9.54034,6.83076 16.55918,8.48485"
       id="polyline364-9"
       inkscape:connector-curvature="0"
       sodipodi:nodetypes="ccc" />
    <path
       sodipodi:type="arc"
       style="fill:#fdefef;fill-opacity:1;stroke:#000000;stroke-width:0.5;stroke-linecap:butt;stroke-linejoin:miter;stroke-miterlimit:4;stroke-opacity:1;stroke-dasharray:none"
       id="path5791-5-7-5-5"
       sodipodi:cx="105.93975"
       sodipodi:cy="69.428749"
       sodipodi:rx="2.1465743"
       sodipodi:ry="2.0203052"
       d="m 108.08632,69.428749 c 0,1.115784 -0.96105,2.020305 -2.14657,2.020305 -1.18552,0 -2.14657,-0.904521 -2.14657,-2.020305 0,-1.115784 0.96105,-2.020305 2.14657,-2.020305 1.18552,0 2.14657,0.904521 2.14657,2.020305 z"
       transform="matrix(0,-1,-1,0,248.51388,524.31401)" />
    <path
       style="fill:none;stroke:#0000cd;stroke-width:1;stroke-linecap:butt;stroke-linejoin:round;stroke-miterlimit:4;stroke-opacity:1;stroke-dasharray:none;marker-mid:url(#Arrow1Mend-9);marker-end:none"
       d="m 209.97596,450.63437 c 15.60601,10.9402 40.98303,17.20611 50.40916,-0.58772 2.48279,-2.59331 4.89747,-18.16924 -26.83369,-25.26514"
       id="polyline364-8"
       inkscape:connector-curvature="0"
       sodipodi:nodetypes="ccc" />
    <path
       sodipodi:type="arc"
       style="fill:#8d3333;fill-opacity:1;stroke:#000000;stroke-width:0.5;stroke-linecap:butt;stroke-linejoin:miter;stroke-miterlimit:4;stroke-opacity:1;stroke-dasharray:none"
       id="path5791-5-7-5-5-0"
       sodipodi:cx="105.93975"
       sodipodi:cy="69.428749"
       sodipodi:rx="2.1465743"
       sodipodi:ry="2.0203052"
       d="m 108.08632,69.428749 c 0,1.115784 -0.96105,2.020305 -2.14657,2.020305 -1.18552,0 -2.14657,-0.904521 -2.14657,-2.020305 0,-1.115784 0.96105,-2.020305 2.14657,-2.020305 1.18552,0 2.14657,0.904521 2.14657,2.020305 z"
       transform="matrix(0,-1,-1,0,278.87102,555.38544)" />
    <path
       style="fill:none;stroke:#0000cd;stroke-width:1;stroke-linecap:butt;stroke-linejoin:round;stroke-miterlimit:4;stroke-opacity:1;stroke-dasharray:none;marker-mid:url(#Arrow1Mend-9);marker-end:none"
       d="m 232.56929,422.67998 c -1.14171,-9.33307 -1.69731,-13.6347 -5.05201,-25.48373 -1.48905,-5.53431 -2.39748,-7.90219 -7.09489,-15.09199"
       id="polyline364-9-0"
       inkscape:connector-curvature="0"
       sodipodi:nodetypes="ccc" />
    <path
       sodipodi:type="arc"
       style="fill:#8d3333;fill-opacity:1;stroke:#000000;stroke-width:0.5;stroke-linecap:butt;stroke-linejoin:miter;stroke-miterlimit:4;stroke-opacity:1;stroke-dasharray:none"
       id="path5791-5-7-5-5-04"
       sodipodi:cx="105.93975"
       sodipodi:cy="69.428749"
       sodipodi:rx="2.1465743"
       sodipodi:ry="2.0203052"
       d="m 108.08632,69.428749 c 0,1.115784 -0.96105,2.020305 -2.14657,2.020305 -1.18552,0 -2.14657,-0.904521 -2.14657,-2.020305 0,-1.115784 0.96105,-2.020305 2.14657,-2.020305 1.18552,0 2.14657,0.904521 2.14657,2.020305 z"
       transform="matrix(0,-1,-1,0,302.0853,529.31401)" />
    <path
       style="fill:#df3131;fill-opacity:0.8;stroke:#000056;stroke-width:0.5;stroke-linecap:butt;stroke-linejoin:miter;stroke-miterlimit:4;stroke-opacity:1;stroke-dasharray:none"
       d="m 251.31952,490.35357 -27.22771,42.57868 -20.09823,-45.54456 z"
       id="path3933-5-3"
       inkscape:connector-curvature="0"
       sodipodi:nodetypes="cccc" />
    <path
       sodipodi:type="arc"
       style="fill:#fdefef;fill-opacity:1;stroke:#000000;stroke-width:0.5;stroke-linecap:butt;stroke-linejoin:miter;stroke-miterlimit:4;stroke-opacity:1;stroke-dasharray:none"
       id="path5791-5-7-5-5-4"
       sodipodi:cx="105.93975"
       sodipodi:cy="69.428749"
       sodipodi:rx="2.1465743"
       sodipodi:ry="2.0203052"
       d="m 108.08632,69.428749 c 0,1.115784 -0.96105,2.020305 -2.14657,2.020305 -1.18552,0 -2.14657,-0.904521 -2.14657,-2.020305 0,-1.115784 0.96105,-2.020305 2.14657,-2.020305 1.18552,0 2.14657,0.904521 2.14657,2.020305 z"
       transform="matrix(0,-1,-1,0,289.94245,487.88544)" />
    <path
       sodipodi:type="arc"
       style="fill:#faefef;fill-opacity:1;stroke:#000000;stroke-width:0.5;stroke-linecap:round;stroke-linejoin:miter;stroke-miterlimit:4;stroke-opacity:1;stroke-dasharray:none"
       id="path5791-5-7"
       sodipodi:cx="105.93975"
       sodipodi:cy="69.428749"
       sodipodi:rx="2.1465743"
       sodipodi:ry="2.0203052"
       d="m 108.08632,69.428749 c 0,1.115784 -0.96105,2.020305 -2.14657,2.020305 -1.18552,0 -2.14657,-0.904521 -2.14657,-2.020305 0,-1.115784 0.96105,-2.020305 2.14657,-2.020305 1.18552,0 2.14657,0.904521 2.14657,2.020305 z"
       transform="translate(169.2333,375.18148)" />
    <path
       style="fill:none;stroke:#000000;stroke-width:1.5;stroke-linecap:round;stroke-linejoin:round;stroke-miterlimit:4;stroke-dasharray:none;marker-end:url(#Arrow1Mend)"
       d="m 275.11853,444.58812 -0.0108,-25.72321"
       id="polyline364-5-4"
       inkscape:connector-curvature="0"
       sodipodi:nodetypes="cc" />
    <text
       xml:space="preserve"
       style="font-size:12px;font-style:normal;font-variant:normal;font-weight:normal;font-stretch:normal;line-height:125%;letter-spacing:0px;word-spacing:0px;fill:#000000;fill-opacity:1;stroke:none;font-family:Arial;-inkscape-font-specification:Arial"
       x="155.51454"
       y="434.11536"
       id="text3029-8"
       sodipodi:linespacing="125%"><tspan
         sodipodi:role="line"
         id="tspan3031-4"
         x="155.51454"
         y="434.11536">x(0)</tspan></text>
    <text
       xml:space="preserve"
       style="font-size:12px;font-style:normal;font-variant:normal;font-weight:normal;font-stretch:normal;line-height:125%;letter-spacing:0px;word-spacing:0px;fill:#000000;fill-opacity:1;stroke:none;font-family:Arial;-inkscape-font-specification:Arial"
       x="229.63046"
       y="381.83688"
       id="text3029-8-3"
       sodipodi:linespacing="125%"><tspan
         sodipodi:role="line"
         id="tspan3031-4-1"
         x="229.63046"
         y="381.83688">x(t)</tspan></text>
    <rect
       style="fill:none;stroke:#000056;stroke-width:1;stroke-miterlimit:4;stroke-opacity:1;stroke-dasharray:none"
       id="rect3111-1-6"
       width="84.34774"
       height="73.741135"
       x="331.01801"
       y="427.75894" />
    <text
       xml:space="preserve"
       style="font-size:12px;font-style:normal;font-variant:normal;font-weight:normal;font-stretch:normal;line-height:125%;letter-spacing:0px;word-spacing:0px;fill:#000000;fill-opacity:1;stroke:none;font-family:Arial;-inkscape-font-specification:Arial"
       x="335.36575"
       y="442.75894"
       id="text3899-5"
       sodipodi:linespacing="125%"><tspan
         sodipodi:role="line"
         id="tspan3901-5"
         x="335.36575"
         y="442.75894">(3)</tspan></text>
    <path
       style="fill:none;stroke:#0000cd;stroke-width:1;stroke-linecap:butt;stroke-linejoin:round;stroke-miterlimit:4;stroke-opacity:1;stroke-dasharray:none;marker-mid:url(#Arrow1Mend-9);marker-end:none"
       d="m 367.51388,411.94694 c 9.15528,2.08869 18.7675,2.02046 28.87294,-0.97551 7.00212,-1.75136 14.48352,-8.44285 19.33608,-15.71248"
       id="polyline364-9-5"
       inkscape:connector-curvature="0"
       sodipodi:nodetypes="ccc" />
    <path
       sodipodi:type="arc"
       style="fill:#fdefef;fill-opacity:1;stroke:#000000;stroke-width:0.5;stroke-linecap:butt;stroke-linejoin:miter;stroke-miterlimit:4;stroke-opacity:1;stroke-dasharray:none"
       id="path5791-5-7-5-5-1"
       sodipodi:cx="105.93975"
       sodipodi:cy="69.428749"
       sodipodi:rx="2.1465743"
       sodipodi:ry="2.0203052"
       d="m 108.08632,69.428749 c 0,1.115784 -0.96105,2.020305 -2.14657,2.020305 -1.18552,0 -2.14657,-0.904521 -2.14657,-2.020305 0,-1.115784 0.96105,-2.020305 2.14657,-2.020305 1.18552,0 2.14657,0.904521 2.14657,2.020305 z"
       transform="matrix(-0.83556682,-0.54938883,-0.54938883,0.83556682,493.98204,412.2198)" />
    <path
       sodipodi:type="arc"
       style="fill:#8d3333;fill-opacity:1;stroke:#000000;stroke-width:0.5;stroke-linecap:butt;stroke-linejoin:miter;stroke-miterlimit:4;stroke-opacity:1;stroke-dasharray:none"
       id="path5791-5-7-5-5-2"
       sodipodi:cx="105.93975"
       sodipodi:cy="69.428749"
       sodipodi:rx="2.1465743"
       sodipodi:ry="2.0203052"
       d="m 108.08632,69.428749 c 0,1.115784 -0.96105,2.020305 -2.14657,2.020305 -1.18552,0 -2.14657,-0.904521 -2.14657,-2.020305 0,-1.115784 0.96105,-2.020305 2.14657,-2.020305 1.18552,0 2.14657,0.904521 2.14657,2.020305 z"
       transform="matrix(0,-1,-1,0,484.79451,500.84528)" />
    <g
       id="g6557"
       transform="translate(-131.78571,-120.35714)">
      <path
         sodipodi:nodetypes="ccc"
         inkscape:connector-curvature="0"
         id="polyline364-9-0-3"
         d="m 545.07856,484.53686 c -8.42564,-4.17351 -12.32518,-6.07254 -24.06887,-9.77919 -5.44236,-1.79629 -7.91997,-2.33812 -16.50823,-2.36312"
         style="fill:none;stroke:#0000cd;stroke-width:1;stroke-linecap:butt;stroke-linejoin:round;stroke-miterlimit:4;stroke-opacity:1;stroke-dasharray:none;marker-mid:url(#Arrow1Mend-9);marker-end:none" />
      <path
         transform="matrix(-0.83556682,-0.54938883,-0.54938883,0.83556682,631.08225,472.42089)"
         d="m 108.08632,69.428749 c 0,1.115784 -0.96105,2.020305 -2.14657,2.020305 -1.18552,0 -2.14657,-0.904521 -2.14657,-2.020305 0,-1.115784 0.96105,-2.020305 2.14657,-2.020305 1.18552,0 2.14657,0.904521 2.14657,2.020305 z"
         sodipodi:ry="2.0203052"
         sodipodi:rx="2.1465743"
         sodipodi:cy="69.428749"
         sodipodi:cx="105.93975"
         id="path5791-5-7-5-5-4-7"
         style="fill:#fdefef;fill-opacity:1;stroke:#000000;stroke-width:0.5;stroke-linecap:butt;stroke-linejoin:miter;stroke-miterlimit:4;stroke-opacity:1;stroke-dasharray:none"
         sodipodi:type="arc" />
    </g>
    <text
       xml:space="preserve"
       style="font-size:12px;font-style:normal;font-variant:normal;font-weight:normal;font-stretch:normal;line-height:125%;letter-spacing:0px;word-spacing:0px;fill:#000000;fill-opacity:1;stroke:none;font-family:Arial;-inkscape-font-specification:Arial"
       x="339.65372"
       y="413.08011"
       id="text3029-8-5"
       sodipodi:linespacing="125%"><tspan
         sodipodi:role="line"
         id="tspan3031-4-2"
         x="339.65372"
         y="413.08011">x(0)</tspan></text>
    <text
       xml:space="preserve"
       style="font-size:12px;font-style:normal;font-variant:normal;font-weight:normal;font-stretch:normal;line-height:125%;letter-spacing:0px;word-spacing:0px;fill:#000000;fill-opacity:1;stroke:none;font-family:Arial;-inkscape-font-specification:Arial"
       x="363.04779"
       y="366.10803"
       id="text3029-8-3-9"
       sodipodi:linespacing="125%"><tspan
         sodipodi:role="line"
         id="tspan3031-4-1-9"
         x="363.04779"
         y="366.10803">x(t)</tspan></text>
    <path
       sodipodi:type="arc"
       style="fill:#fdefef;fill-opacity:1;stroke:#000000;stroke-width:0.5;stroke-linecap:butt;stroke-linejoin:miter;stroke-miterlimit:4;stroke-opacity:1;stroke-dasharray:none"
       id="path5791-5-7-5-5-1-6"
       sodipodi:cx="105.93975"
       sodipodi:cy="69.428749"
       sodipodi:rx="2.1465743"
       sodipodi:ry="2.0203052"
       d="m 108.08632,69.428749 c 0,1.115784 -0.96105,2.020305 -2.14657,2.020305 -1.18552,0 -2.14657,-0.904521 -2.14657,-2.020305 0,-1.115784 0.96105,-2.020305 2.14657,-2.020305 1.18552,0 2.14657,0.904521 2.14657,2.020305 z"
       transform="matrix(-0.83556682,-0.54938883,-0.54938883,0.83556682,511.84114,397.03243)" />
    <path
       sodipodi:type="arc"
       style="fill:#fdefef;fill-opacity:1;stroke:#000000;stroke-width:0.5;stroke-linecap:butt;stroke-linejoin:miter;stroke-miterlimit:4;stroke-opacity:1;stroke-dasharray:none"
       id="path5791-5-7-5-5-1-61"
       sodipodi:cx="105.93975"
       sodipodi:cy="69.428749"
       sodipodi:rx="2.1465743"
       sodipodi:ry="2.0203052"
       d="m 108.08632,69.428749 c 0,1.115784 -0.96105,2.020305 -2.14657,2.020305 -1.18552,0 -2.14657,-0.904521 -2.14657,-2.020305 0,-1.115784 0.96105,-2.020305 2.14657,-2.020305 1.18552,0 2.14657,0.904521 2.14657,2.020305 z"
       transform="matrix(-0.83556682,-0.54938883,-0.54938883,0.83556682,612.35131,376.3243)" />
    <text
       xml:space="preserve"
       style="font-size:12px;font-style:normal;font-variant:normal;font-weight:normal;font-stretch:normal;line-height:125%;letter-spacing:0px;word-spacing:0px;fill:#000000;fill-opacity:1;stroke:none;font-family:Arial;-inkscape-font-specification:Arial"
       x="467.86871"
       y="371.35565"
       id="text3029-5-8"
       sodipodi:linespacing="125%"><tspan
         sodipodi:role="line"
         id="tspan3031-8-2"
         x="467.86871"
         y="371.35565">x'2</tspan></text>
    <text
       xml:space="preserve"
       style="font-size:12px;font-style:normal;font-variant:normal;font-weight:normal;font-stretch:normal;line-height:125%;letter-spacing:0px;word-spacing:0px;fill:#000000;fill-opacity:1;stroke:none;font-family:Arial;-inkscape-font-specification:Arial"
       x="389.86197"
       y="391.05365"
       id="text3029-6"
       sodipodi:linespacing="125%"><tspan
         sodipodi:role="line"
         id="tspan3031-81"
         x="389.86197"
         y="391.05365">x'1</tspan></text>
    <path
       style="fill:none;stroke:#272f5b;stroke-width:2;stroke-linecap:butt;stroke-linejoin:round;stroke-miterlimit:4;stroke-opacity:1;stroke-dasharray:none;marker-mid:none;marker-end:url(#Arrow1Mend-9-1)"
       d="m 214.60138,344.6893 c 10.16543,-19.26129 26.34364,-31.81996 60.18767,-31.85445 30.61385,1.02207 45.88276,9.07872 58.73203,27.83431"
       id="polyline364-9-5-5-9"
       inkscape:connector-curvature="0"
       sodipodi:nodetypes="ccc" />
    <path
       style="fill:none;stroke:#272f5b;stroke-width:2;stroke-linecap:butt;stroke-linejoin:round;stroke-miterlimit:4;stroke-opacity:1;stroke-dasharray:none;marker-mid:none;marker-end:url(#Arrow1Mend-9-1)"
       d="m 279.94612,492.5373 c 37.94462,23.80697 77.35634,21.71843 109.18007,3.57018 24.7722,-12.48534 43.77791,-36.51304 46.6102,-70.26072"
       id="polyline364-9-5-5-9-1"
       inkscape:connector-curvature="0"
       sodipodi:nodetypes="ccc" />
  </g>
</svg>
