<?xml version="1.0" encoding="UTF-8" standalone="no"?>
<!-- Created with Inkscape (http://www.inkscape.org/) -->

<svg
   xmlns:dc="http://purl.org/dc/elements/1.1/"
   xmlns:cc="http://creativecommons.org/ns#"
   xmlns:rdf="http://www.w3.org/1999/02/22-rdf-syntax-ns#"
   xmlns:svg="http://www.w3.org/2000/svg"
   xmlns="http://www.w3.org/2000/svg"
   xmlns:sodipodi="http://sodipodi.sourceforge.net/DTD/sodipodi-0.dtd"
   xmlns:inkscape="http://www.inkscape.org/namespaces/inkscape"
   width="253.44501"
   height="162.21472"
   id="svg6090"
   version="1.1"
   inkscape:version="0.48.1 "
   sodipodi:docname="A29sliceWurst.svg">
  <defs
     id="defs6092" />
  <sodipodi:namedview
     id="base"
     pagecolor="#ffffff"
     bordercolor="#666666"
     borderopacity="1.0"
     inkscape:pageopacity="0.0"
     inkscape:pageshadow="2"
     inkscape:zoom="1.979899"
     inkscape:cx="99.452017"
     inkscape:cy="67.028934"
     inkscape:document-units="px"
     inkscape:current-layer="layer1"
     showgrid="false"
     showborder="false"
     fit-margin-top="0"
     fit-margin-left="0"
     fit-margin-right="0"
     fit-margin-bottom="0"
     inkscape:window-width="1051"
     inkscape:window-height="734"
     inkscape:window-x="1711"
     inkscape:window-y="38"
     inkscape:window-maximized="0"
     showguides="true"
     inkscape:guide-bbox="true" />
  <metadata
     id="metadata6095">
    <rdf:RDF>
      <cc:Work
         rdf:about="">
        <dc:format>image/svg+xml</dc:format>
        <dc:type
           rdf:resource="http://purl.org/dc/dcmitype/StillImage" />
        <dc:title />
      </cc:Work>
    </rdf:RDF>
  </metadata>
  <g
     inkscape:label="Layer 1"
     inkscape:groupmode="layer"
     id="layer1"
     transform="translate(-147.54649,-288.355)">
    <g
       id="g3115">
      <path
         inkscape:connector-curvature="0"
         id="polyline4591"
         d="m 176.25771,311.11304 c -0.41058,4.99313 1.86205,9.57136 1.00801,14.57024 1.27203,10.53975 1.18851,21.19013 0.792,31.824 1.07165,9.81515 0.0833,19.6899 -0.648,29.49376 -0.2727,7.522 -0.16265,15.17119 -0.864,22.68 -0.41043,7.33845 -0.19166,14.73082 0,22.03196 0.34047,1.54792 -0.33634,5.83766 0,6.04804 l 0,-0.60224 0,-0.18976"
         style="fill:none;stroke:#000000;stroke-width:1;stroke-linecap:round;stroke-linejoin:round" />
      <path
         inkscape:connector-curvature="0"
         id="polyline4593"
         d="m 173.95371,314.92901 c 3.70074,0.21987 6.98265,-1.46107 10.2956,-2.9851 8.41779,-3.13856 17.15428,-5.29426 25.42465,-8.75295 9.32019,-2.25445 18.24002,-6.63492 27.78461,-8.52298 6.19297,-1.89015 12.40812,-4.09013 18.43115,-5.80294"
         style="fill:none;stroke:#000000;stroke-width:1;stroke-linecap:round;stroke-linejoin:round" />
      <path
         inkscape:connector-curvature="0"
         id="polyline4595"
         d="m 256.10572,289.22504 c -1.01,0.14923 -0.7906,3.23179 -0.79201,4.60796 1.06216,9.5589 0.40973,19.20427 1.008,28.80004 0.72798,5.77783 1.05497,11.60052 1.944,17.352 0.17689,6.23391 -0.99488,12.60405 0.36,18.648 0.0826,0.56023 0.23333,0.30055 0,-0.14404"
         style="fill:none;stroke:#000000;stroke-width:1;stroke-linecap:round;stroke-linejoin:round" />
      <path
         inkscape:connector-curvature="0"
         id="polyline4597"
         d="m 227.59371,356.97704 c 2.50823,-1.15292 5.9775,0.0333 9.07201,-0.072 4.86943,1.62982 10.95057,0.37571 14.54399,4.68 7.38564,5.27967 16.63787,6.42998 25.34401,7.70395 7.7664,2.15971 15.76766,4.66416 23.97598,4.17605 7.01101,-0.0731 13.94427,-2.08466 19.53672,-6.40838 4.42903,-2.3919 7.87601,-6.0525 10.1993,-10.51162 2.23598,-4.68349 5.84636,-9.58693 4.464,-14.976 -1.81519,-3.65812 -3.0252,-7.91759 -6.98402,-9.936 -4.38826,-2.04018 -7.86324,-3.17031 -12.6,-3.02404 -2.26939,-0.36322 -5.55005,0.39741 -6.47998,1.72804 -1.78975,0.52991 -2.59626,3.15041 -4.46402,3.96 -0.0841,1.76086 -2.08149,2.42124 -2.37598,3.96 0.45852,-1.18625 -0.81953,0.22873 -0.72,0.864"
         style="fill:none;stroke:#000000;stroke-width:1;stroke-linecap:round;stroke-linejoin:round" />
      <path
         inkscape:connector-curvature="0"
         id="polyline4599"
         d="m 302.76172,338.11304 c -2.34838,0.11928 -2.71756,4.69676 -4.46402,6.552 -0.56896,1.40279 -2.08862,2.54233 -2.01598,4.032"
         style="fill:none;stroke:#000000;stroke-width:1;stroke-linecap:round;stroke-linejoin:round" />
      <path
         inkscape:connector-curvature="0"
         id="polyline4601"
         d="m 229.03371,356.833 c -1.00561,-1.54335 -4.10541,-0.31097 -6.192,-0.71996 -2.38169,0.26004 -4.75938,0.3114 -6.33599,2.52 -2.59738,2.37709 -5.95334,3.87372 -7.344,6.98396 -2.02655,2.48753 -4.05688,5.35162 -3.528,8.78399 0.40187,0.10888 1.11593,3.19561 1.584,4.53601 2.3848,3.65229 1.7216,9.84476 0.216,13.10401 -2.87984,2.7507 -4.88514,6.68392 -7.92001,9.57599 -2.87585,3.8963 -4.526,8.22645 -3.74399,12.74404 1.38784,3.9008 4.49219,7.7202 8.35199,9.288 4.46048,0.29061 8.51294,-1.77389 12.672,-2.952 1.95004,-0.88873 4.47191,-2.07642 5.688,-2.808 l -0.14399,0 0,0.216"
         style="fill:none;stroke:#000000;stroke-width:1;stroke-linecap:round;stroke-linejoin:round" />
      <path
         inkscape:connector-curvature="0"
         id="polyline4603"
         d="m 207.21772,425.44904 c 2.39821,-1.28231 4.02017,-3.13175 6.84,-3.24 5.57604,-1.17932 11.26803,-2.35366 16.80223,-3.528 8.56683,-1.11229 17.14763,1.21427 25.74977,0.432 4.83903,-0.40215 10.18012,1.10079 14.328,-2.088 4.33187,-1.71831 7.55259,-5.2973 11.52,-7.20004 5.10518,-4.28014 9.11948,-10.89631 16.34398,-11.73596 12.92354,-1.13471 25.51219,3.48808 38.448,3.09595 7.86309,0.11192 15.90093,0.38298 23.616,-1.43995 6.90727,-1.61597 14.00382,-4.16822 19.87202,-7.632 5.68144,-4.25993 10.53015,-9.96038 13.032,-16.704 2.59339,-3.99377 4.6188,-9.10989 5.21709,-14.1116 1.38676,-5.61804 2.07431,-11.46084 0.97491,-17.2084 0.77766,-5.88463 -2.52076,-10.66342 -3.81602,-16.056 -0.65201,-0.94633 -0.91664,-3.3295 -1.29598,-3.816"
         style="fill:none;stroke:#000000;stroke-width:1;stroke-linecap:round;stroke-linejoin:round" />
      <path
         inkscape:connector-curvature="0"
         id="polyline4605"
         d="m 398.5217,329.76104 c -0.29395,-2.20482 -1.87101,-3.96065 -2.664,-5.976 -5.96267,-7.29394 -12.49607,-14.2147 -20.08798,-20.016 -2.81416,-1.39831 -5.83566,-1.82606 -8.4821,-3.88819 -6.90213,-3.24897 -14.75662,-2.94014 -22.1899,-3.67181 -5.76314,0.0646 -11.39671,0.94783 -17.09024,1.656 -5.73678,0.25053 -11.25834,2.69866 -16.31778,4.53595 -5.77867,2.40917 -10.77606,6.85289 -15.048,11.44805 -2.71316,4.88368 -5.24282,10.05397 -6.47998,15.55195 0.19018,5.46849 -1.50997,10.66351 -1.368,16.12805 -0.5867,3.49219 -0.84099,7.08344 -0.72,10.584"
         style="fill:none;stroke:#000000;stroke-width:1;stroke-linecap:round;stroke-linejoin:round" />
      <path
         inkscape:connector-curvature="0"
         id="polyline4607"
         d="m 297.3617,346.68104 c -0.69978,3.45348 -0.41138,8.1965 -2.15998,11.736 -1.28273,0.82413 -0.0476,2.38745 -1.72802,3.024 -0.56894,1.68224 -3.0369,3.44157 -3.52798,4.896"
         style="fill:none;stroke:#000000;stroke-width:1;stroke-linecap:round;stroke-linejoin:round" />
      <path
         inkscape:connector-curvature="0"
         id="polyline4609"
         d="m 288.64972,356.11304 c -2.15189,-0.20865 -4.36004,3.3998 -7.2,3.528 -3.02102,1.74078 -5.48375,0.20503 -8.71201,0.432 -1.86036,-0.51332 -3.66957,-1.17399 -4.46399,-2.88 -0.67197,-0.43889 -0.34149,-0.16659 -1.8,-0.72"
         style="fill:none;stroke:#000000;stroke-width:1;stroke-linecap:round;stroke-linejoin:round" />
      <path
         inkscape:connector-curvature="0"
         id="polyline4611"
         d="m 290.3057,366.33704 c -0.92286,-0.99502 -2.01436,1.87686 -3.59998,1.15196 -3.42377,0.27159 -7.11914,1.20901 -10.296,1.36804 -0.1302,-0.18969 -1.16095,-0.11815 -1.22401,-0.14404"
         style="fill:none;stroke:#000000;stroke-width:1;stroke-linecap:round;stroke-linejoin:round" />
      <path
         inkscape:connector-curvature="0"
         id="polyline4613"
         d="m 261.28971,365.40099 c -0.0917,-1.27813 -2.56767,-0.92991 -1.8,-2.59195"
         style="fill:none;stroke:#000000;stroke-width:1;stroke-linecap:round;stroke-linejoin:round" />
      <path
         inkscape:connector-curvature="0"
         id="polyline4615"
         d="m 267.98571,357.48101 c -0.70525,-1.13277 -0.89871,-1.87199 -1.29599,-3.59997 -0.26034,-2.04269 -0.53651,-3.90833 -2.37601,-5.112 -0.73276,-0.82831 -2.7002,-2.16325 -2.304,-2.88"
         style="fill:none;stroke:#000000;stroke-width:1;stroke-linecap:round;stroke-linejoin:round" />
      <path
         inkscape:connector-curvature="0"
         id="polyline4617"
         d="m 199.44172,419.18499 c 0.21553,-1.1734 -1.89542,-0.27544 -2.52,-0.50395"
         style="fill:none;stroke:#000000;stroke-width:1;stroke-linecap:round;stroke-linejoin:round" />
      <path
         inkscape:connector-curvature="0"
         id="polyline4619"
         d="m 193.89771,418.10504 c -0.2051,-0.65811 0.0448,-1.02644 -0.864,-0.93604"
         style="fill:none;stroke:#000000;stroke-width:1;stroke-linecap:round;stroke-linejoin:round" />
      <path
         inkscape:connector-curvature="0"
         id="polyline4621"
         d="m 188.92971,416.161 c -1.51016,-1.41003 -3.8712,-2.42968 -6.19199,-2.664 l 0.072,-0.072 0.28799,0"
         style="fill:none;stroke:#000000;stroke-width:1;stroke-linecap:round;stroke-linejoin:round" />
      <path
         inkscape:connector-curvature="0"
         id="polyline4623"
         d="m 180.28971,410.47304 c -1.67062,-0.24822 -3.56619,-0.24207 -5.32799,-0.43203"
         style="fill:none;stroke:#000000;stroke-width:1;stroke-linecap:round;stroke-linejoin:round" />
      <path
         inkscape:connector-curvature="0"
         id="polyline4625"
         d="m 228.88972,353.95299 c -1.49489,-0.81732 -2.14161,-1.54676 -3.74401,-2.664 -1.09105,-0.28764 -2.13469,-0.60133 -3.16799,-0.93595"
         style="fill:none;stroke:#000000;stroke-width:1;stroke-linecap:round;stroke-linejoin:round" />
      <path
         inkscape:connector-curvature="0"
         id="polyline4627"
         d="m 218.44972,346.96904 c -0.34524,-2.03344 -3.27645,-1.84972 -4.82401,-2.37603 -2.48223,-0.40302 -5.46538,1.92798 -7.63199,0.93603"
         style="fill:none;stroke:#000000;stroke-width:1;stroke-linecap:round;stroke-linejoin:round" />
      <path
         inkscape:connector-curvature="0"
         id="polyline4629"
         d="m 204.55372,342.86504 c -0.64326,-2.516 -4.15638,-0.77156 -5.40001,-2.88 -0.55492,-0.86028 -4.17556,-1.43937 -3.38399,-0.792"
         style="fill:none;stroke:#000000;stroke-width:1;stroke-linecap:round;stroke-linejoin:round" />
      <path
         inkscape:connector-curvature="0"
         id="polyline4631"
         d="m 194.04171,337.68104 c -2.25157,-1.16338 -5.69752,-0.27661 -7.416,-2.664 -1.19491,0.40888 -2.43207,-0.57435 -3.672,-0.36"
         style="fill:none;stroke:#000000;stroke-width:1;stroke-linecap:round;stroke-linejoin:round" />
      <path
         inkscape:connector-curvature="0"
         id="polyline4633"
         d="m 180.79372,334.15301 c -1.40225,0.4114 -2.53147,-0.55306 -3.888,-0.64801"
         style="fill:none;stroke:#000000;stroke-width:1;stroke-linecap:round;stroke-linejoin:round" />
      <path
         inkscape:connector-curvature="0"
         id="polyline4635"
         d="m 177.33772,405.28899 c -1.53248,-0.8169 -2.46657,-1.05505 -3.312,-2.87995 -3.81162,-2.44263 -7.09122,-5.92564 -10.008,-9.216 -2.84436,-2.65883 -4.2291,-7.21774 -6.48001,-10.728 -1.99289,-4.54719 -2.67418,-9.54872 -4.31999,-14.18404 -2.47577,-4.15117 -2.00967,-9.26606 -3.67201,-13.68 -1.72292,-8.10977 -2.33553,-16.77019 0.21601,-24.69596 1.46877,-4.23024 1.37511,-9.2172 3.816,-13.17605 1.52269,-4.42544 3.62345,-8.96993 7.2,-12.09595 2.2813,-2.5508 5.36232,-4.36843 7.272,-7.272 0.42413,-0.23247 0.76782,-0.55293 1.368,-0.288"
         style="fill:none;stroke:#000000;stroke-width:1;stroke-linecap:round;stroke-linejoin:round" />
      <path
         inkscape:connector-curvature="0"
         id="polyline4637"
         d="m 165.09772,301.53704 c -0.30473,-0.75056 -0.18533,-3.00203 1.79533,-2.63844 8.32975,-3.35505 17.39733,-5.41934 26.4479,-5.73314 8.54877,-0.94835 17.58909,-0.11314 25.46877,3.25958 0.67514,0.74497 3.14948,2.38458 3.168,2.376"
         style="fill:none;stroke:#000000;stroke-width:1;stroke-linecap:round;stroke-linejoin:round" />
      <path
         inkscape:connector-curvature="0"
         id="polyline4639"
         d="m 176.76171,333.79304 c 0.91956,-2.0046 -3.16406,-2.82223 -4.82399,-3.16805 -4.14075,-0.85747 -6.20364,-5.98551 -4.464,-9.57599 0.86829,-0.37965 1.90918,-2.50105 2.376,-3.888 1.60004,-4.24173 6.97255,-6.27811 11.232,-8.35196 4.51819,-2.06323 9.59541,-2.80224 13.968,-4.32004 1.99358,-0.45726 5.11053,-0.32471 6.48,0.072 0.0926,-0.38846 0.12861,0.37384 0.28799,0.432"
         style="fill:none;stroke:#000000;stroke-width:1;stroke-linecap:round;stroke-linejoin:round" />
      <path
         inkscape:connector-curvature="0"
         id="polyline4641"
         d="m 202.03371,305.20904 c -1.5752,0.50073 1.88884,-0.36842 2.088,0.072"
         style="fill:none;stroke:#000000;stroke-width:1;stroke-linecap:round;stroke-linejoin:round" />
      <path
         inkscape:connector-curvature="0"
         id="polyline4643"
         d="m 208.22572,309.81701 c 1.26595,0.23704 3.55616,0.90288 5.25599,0.93603"
         style="fill:none;stroke:#000000;stroke-width:1;stroke-linecap:round;stroke-linejoin:round" />
      <path
         inkscape:connector-curvature="0"
         id="polyline4645"
         d="m 219.81771,312.76904 c 1.36633,0.84053 1.28117,2.79115 2.52001,3.74395 1.29733,0.59794 1.84742,3.83032 2.23199,3.67205 -0.1619,0.35305 1.33473,1.76873 0.79201,2.736"
         style="fill:none;stroke:#000000;stroke-width:1;stroke-linecap:round;stroke-linejoin:round" />
      <path
         inkscape:connector-curvature="0"
         id="polyline4647"
         d="m 226.08172,303.91304 c -0.15143,-2.96357 1.95554,0.75593 3.42736,1.16172 0.80466,0.95788 3.8388,0.72835 3.70063,1.79028"
         style="fill:none;stroke:#000000;stroke-width:1;stroke-linecap:round;stroke-linejoin:round" />
      <path
         inkscape:connector-curvature="0"
         id="polyline4649"
         d="m 239.90571,312.98504 c -0.17186,2.22667 1.6262,3.97134 1.15201,6.336"
         style="fill:none;stroke:#000000;stroke-width:1;stroke-linecap:round;stroke-linejoin:round" />
      <path
         inkscape:connector-curvature="0"
         id="polyline4651"
         d="m 242.92971,320.90504 c 0.60834,0.89641 0.0636,3.67271 0.216,5.184"
         style="fill:none;stroke:#000000;stroke-width:1;stroke-linecap:round;stroke-linejoin:round" />
      <path
         inkscape:connector-curvature="0"
         id="polyline4653"
         d="m 245.66572,333.07304 c -0.84815,1.05636 0.59205,5.29005 1.8,5.472"
         style="fill:none;stroke:#000000;stroke-width:1;stroke-linecap:round;stroke-linejoin:round" />
      <path
         inkscape:connector-curvature="0"
         id="polyline4655"
         d="m 252.64971,343.80104 c 1.11439,3.18932 5.31185,1.63086 7.34401,2.736"
         style="fill:none;stroke:#000000;stroke-width:1;stroke-linecap:round;stroke-linejoin:round" />
      <path
         inkscape:connector-curvature="0"
         id="polyline4657"
         d="m 226.29772,325.945 c 0.31793,2.13048 -1.22737,5.87122 2.15999,5.76001"
         style="fill:none;stroke:#000000;stroke-width:1;stroke-linecap:round;stroke-linejoin:round" />
      <path
         inkscape:connector-curvature="0"
         id="polyline4659"
         d="m 233.71372,335.44904 c 1.31467,-0.11724 2.20197,2.17055 4.10399,1.44 0.27445,0.29318 1.02318,1.46915 1.44,1.008"
         style="fill:none;stroke:#000000;stroke-width:1;stroke-linecap:round;stroke-linejoin:round" />
      <path
         inkscape:connector-curvature="0"
         id="polyline4661"
         d="m 241.41772,340.41704 c 0.78556,-1.31421 2.19146,1.73673 0.72,2.448 -1.37458,1.47885 -0.7472,3.99947 -0.64801,5.832 2.36517,0.62106 3.57726,4.96166 6.69601,3.67197 1.2907,0.59134 4.28548,0.66717 5.256,0.072 -0.12424,0.0328 -0.36995,-0.1029 -0.28801,0.216"
         style="fill:none;stroke:#000000;stroke-width:1;stroke-linecap:round;stroke-linejoin:round" />
      <path
         inkscape:connector-curvature="0"
         id="polyline4663"
         d="m 252.57772,353.30504 c 1.89318,0.83843 5.41998,-1.12578 6.04799,1.51197"
         style="fill:none;stroke:#000000;stroke-width:1;stroke-linecap:round;stroke-linejoin:round" />
      <path
         inkscape:connector-curvature="0"
         id="polyline4665"
         d="m 230.61771,355.32104 c -0.99082,-0.21214 0.46183,-1.02408 0.864,0 0.69023,-0.0211 2.05933,1.17322 1.87201,0.576 0.57983,0.42753 1.34299,0.718 2.51999,1.44 0.12958,0.78682 1.52514,3.09355 1.8,2.736"
         style="fill:none;stroke:#000000;stroke-width:1;stroke-linecap:round;stroke-linejoin:round" />
      <path
         inkscape:connector-curvature="0"
         id="polyline4667"
         d="m 239.18572,365.18504 c -0.0626,-3.16523 1.7713,0.6224 2.30399,1.65595 0.91331,1.41874 1.32662,3.56826 1.22401,4.96805"
         style="fill:none;stroke:#000000;stroke-width:1;stroke-linecap:round;stroke-linejoin:round" />
      <path
         inkscape:connector-curvature="0"
         id="polyline4669"
         d="m 242.42571,377.64104 c 0.87758,-1.07852 0.0472,3.0449 0.28801,3.888 0.075,1.02379 -0.028,1.99386 0.36,2.88"
         style="fill:none;stroke:#000000;stroke-width:1;stroke-linecap:round;stroke-linejoin:round" />
      <path
         inkscape:connector-curvature="0"
         id="polyline4671"
         d="m 243.43371,389.66504 c -0.0489,0.26727 -0.25867,3.14564 -0.648,2.95196 -0.91829,1.56282 -0.21942,4.05787 -0.86399,5.328"
         style="fill:none;stroke:#000000;stroke-width:1;stroke-linecap:round;stroke-linejoin:round" />
      <path
         inkscape:connector-curvature="0"
         id="polyline4673"
         d="m 240.48171,402.48101 c -1.95664,-0.46455 -2.54088,1.43358 -4.104,2.01599 -1.55271,1.1421 -3.18322,2.41108 -4.24799,3.96004"
         style="fill:none;stroke:#000000;stroke-width:1;stroke-linecap:round;stroke-linejoin:round" />
      <path
         inkscape:connector-curvature="0"
         id="polyline4675"
         d="m 230.83372,410.47304 c -2.22005,-0.92689 -4.42474,1.48828 -4.896,3.312 -0.61733,0.64808 -1.43567,4.19369 -0.936,4.17595"
         style="fill:none;stroke:#000000;stroke-width:1;stroke-linecap:round;stroke-linejoin:round" />
      <path
         inkscape:connector-curvature="0"
         id="polyline4677"
         d="m 209.37772,360.721 c 0.15444,-2.29818 -0.20513,-0.89818 -0.216,0.50404 0.042,2.25428 -0.002,6.73809 0,7.992 1.04347,-2.78273 5.08041,-3.69398 6.62399,-6.48005 2.1934,-1.88717 -1.7268,-0.90163 -2.664,-2.51995 -1.44304,-0.44055 -3.38255,-2.51282 -1.8,-0.432 0.16101,1.42106 0.1313,5.95944 0.072,5.544 -0.80379,-1.69533 1.61543,-5.75827 2.88,-3.38404 0.52668,2.2477 -1.52248,1.83861 -2.88,2.73604 l 0.216,0 0.28799,-0.072"
         style="fill:none;stroke:#000000;stroke-width:1;stroke-linecap:round;stroke-linejoin:round" />
      <path
         inkscape:connector-curvature="0"
         id="polyline4679"
         d="m 197.35372,361.44104 c -0.97491,-1.84524 0.28971,1.98762 0,2.51995 0.22048,2.22018 0.73612,5.5794 0.72,7.12805 -0.12,0 -0.24,0 -0.36,0"
         style="fill:none;stroke:#000000;stroke-width:1;stroke-linecap:round;stroke-linejoin:round" />
      <path
         inkscape:connector-curvature="0"
         id="polyline4681"
         d="m 197.42571,363.09704 c -0.87924,-2.66715 4.47947,-4.33537 4.752,-1.15204 0.99163,1.70704 -1.10918,4.18937 -3.024,3.45599 -0.81348,-0.006 -1.03514,0.5145 -1.87199,0.57605"
         style="fill:none;stroke:#000000;stroke-width:1;stroke-linecap:round;stroke-linejoin:round" />
      <path
         inkscape:connector-curvature="0"
         id="polyline4683"
         d="m 196.05772,358.20104 c -0.46693,-0.78881 1.76713,-2.1837 1.944,-2.952 0.80745,0.67257 2.42726,2.02174 3.6,1.872"
         style="fill:none;stroke:#000000;stroke-width:1;stroke-linecap:round;stroke-linejoin:round" />
      <path
         inkscape:connector-curvature="0"
         id="polyline4685"
         d="m 209.01772,388.22504 c -0.20656,-0.83153 -1.73763,-1.1 0.21599,-1.29603 1.75788,-1.112 3.30087,0.42123 2.23201,2.30403 -1.92721,1.22989 -3.40406,0.54538 -3.31201,-1.72804 0.23682,-1.36701 2.97626,-0.91255 1.87201,0.79204"
         style="fill:none;stroke:#000000;stroke-width:1;stroke-linecap:round;stroke-linejoin:round" />
      <path
         inkscape:connector-curvature="0"
         id="polyline4687"
         d="m 185.18572,384.12104 c 1.75948,-1.23215 2.87781,2.59134 4.82399,2.664 0.8157,0.71348 3.09708,1.85278 1.87201,2.88"
         style="fill:none;stroke:#000000;stroke-width:1;stroke-linecap:round;stroke-linejoin:round" />
      <path
         inkscape:connector-curvature="0"
         id="polyline4689"
         d="m 190.00971,383.68904 c -1.01925,0.0584 -0.71522,3.40822 -2.15999,4.24796 -0.22979,0.66248 -1.92381,3.37662 -1.00801,3.23999"
         style="fill:none;stroke:#000000;stroke-width:1;stroke-linecap:round;stroke-linejoin:round" />
      <path
         inkscape:connector-curvature="0"
         id="polyline4691"
         d="m 197.20971,384.049 c -0.28886,-1.90294 -2.35158,1.66558 -2.088,2.73604 0.10338,1.18342 0.93557,1.79895 1.944,2.37596"
         style="fill:none;stroke:#000000;stroke-width:1;stroke-linecap:round;stroke-linejoin:round" />
      <path
         inkscape:connector-curvature="0"
         id="polyline4693"
         d="m 199.87371,386.497 c 0.59675,-2.79485 -2.02874,1.37723 0.14401,1.65601 2.73441,0.27302 1.91762,-6.00475 -0.50401,-3.16797"
         style="fill:none;stroke:#000000;stroke-width:1;stroke-linecap:round;stroke-linejoin:round" />
      <path
         inkscape:connector-curvature="0"
         id="polyline4695"
         d="m 203.11372,383.11304 c 2.27008,0.26144 3.11884,5.05194 0.48277,6.30058 -0.28516,0.24701 -0.56092,0.50463 -0.84277,0.75538"
         style="fill:none;stroke:#000000;stroke-width:1;stroke-linecap:round;stroke-linejoin:round" />
      <path
         inkscape:connector-curvature="0"
         id="polyline4697"
         d="m 183.45771,381.385 c 0.91206,0.15949 4.35991,-2.85027 3.96001,-3.74396 0.69525,1.34502 2.54544,1.80457 3.6,2.88"
         style="fill:none;stroke:#000000;stroke-width:1;stroke-linecap:round;stroke-linejoin:round" />
      <path
         inkscape:connector-curvature="0"
         id="polyline4699"
         d="m 270.72172,393.40904 c -0.56602,-1.5315 0.0103,-1.3862 1.65599,-1.656 0.91808,-1.39422 1.88644,1.04578 1.36801,1.44 -1.15461,1.18998 -3.35167,1.76364 -3.024,-0.216 -0.12449,-2.15081 5.12539,-0.1536 2.088,0.216 -0.23272,-0.0646 -0.11379,-0.57878 -0.144,-0.79205"
         style="fill:none;stroke:#000000;stroke-width:1;stroke-linecap:round;stroke-linejoin:round" />
      <path
         inkscape:connector-curvature="0"
         id="polyline4701"
         d="m 272.95371,393.049 c -0.38445,-1.26853 2.87295,-0.65574 3.45601,-2.30396 5.76096,-2.88634 12.5307,-0.9079 18.576,-3.096 4.56636,0.0489 9.24522,-1.04449 13.464,-2.736 4.23911,-2.11437 5.27952,-7.6684 4.68,-11.664 -0.58713,-1.2579 -2.64176,-3.90546 -2.66402,-4.464 l 0.14402,0.36 0.072,0.504"
         style="fill:none;stroke:#000000;stroke-width:1;stroke-linecap:round;stroke-linejoin:round" />
      <path
         inkscape:connector-curvature="0"
         id="polyline4703"
         d="m 303.98572,383.617 c -0.88775,-2.01183 3.82083,0.76403 5.184,0.36004 2.94576,-0.16663 1.33658,0.34841 0.648,2.016 -0.19548,0.89771 -1.6929,1.56541 -1.224,2.592"
         style="fill:none;stroke:#000000;stroke-width:1;stroke-linecap:round;stroke-linejoin:round" />
      <path
         inkscape:connector-curvature="0"
         id="polyline4705"
         d="m 259.12971,397.00904 c 0.85351,1.00247 1.94284,4.32212 3.09601,5.544"
         style="fill:none;stroke:#000000;stroke-width:1;stroke-linecap:round;stroke-linejoin:round" />
      <path
         inkscape:connector-curvature="0"
         id="polyline4707"
         d="m 264.02572,397.65704 c 0.31149,-2.79895 -2.12977,1.48841 -2.88001,2.30395 -0.69361,1.63836 -2.54719,4.08089 -2.88,5.18405"
         style="fill:none;stroke:#000000;stroke-width:1;stroke-linecap:round;stroke-linejoin:round" />
      <path
         inkscape:connector-curvature="0"
         id="polyline4709"
         d="m 268.34571,399.45704 c 0.0822,-2.13774 -2.41167,2.58737 -2.16,3.38395 -0.20407,1.27273 0.91796,1.54433 1.944,1.72805"
         style="fill:none;stroke:#000000;stroke-width:1;stroke-linecap:round;stroke-linejoin:round" />
      <path
         inkscape:connector-curvature="0"
         id="polyline4711"
         d="m 273.52972,400.609 c -3.19738,-0.84838 -1.13596,5.55381 1.08,3.23999 1.25725,-1.45151 0.0169,-6.09188 -2.304,-3.52795"
         style="fill:none;stroke:#000000;stroke-width:1;stroke-linecap:round;stroke-linejoin:round" />
      <path
         inkscape:connector-curvature="0"
         id="polyline4713"
         d="m 276.48171,399.67304 c 3.3561,-0.7899 4.64095,5.34908 1.51201,5.976"
         style="fill:none;stroke:#000000;stroke-width:1;stroke-linecap:round;stroke-linejoin:round" />
      <path
         inkscape:connector-curvature="0"
         id="polyline4715"
         d="m 310.9697,370.80104 c -0.80871,0.20541 -1.52039,1.96216 -2.23198,2.664 -0.0344,0.51219 0.16121,0.045 0,0.792"
         style="fill:none;stroke:#000000;stroke-width:1;stroke-linecap:round;stroke-linejoin:round" />
      <path
         inkscape:connector-curvature="0"
         id="polyline4717"
         d="m 309.24172,377.92901 c -0.0736,-1.52663 0.43722,1.32627 0.50398,1.94403 l 0.21602,0.144"
         style="fill:none;stroke:#000000;stroke-width:1;stroke-linecap:round;stroke-linejoin:round" />
      <path
         inkscape:connector-curvature="0"
         id="polyline4719"
         d="m 314.6417,386.42504 c 1.21367,0.1122 1.3211,2.64741 2.664,3.24 0.19873,0.64207 1.12936,0.95398 1.728,1.15197"
         style="fill:none;stroke:#000000;stroke-width:1;stroke-linecap:round;stroke-linejoin:round" />
      <path
         inkscape:connector-curvature="0"
         id="polyline4721"
         d="m 328.9697,395.13704 c 2.7334,-0.6264 3.90954,2.43222 6.336,2.80796 0.25183,0.17192 0.5049,0.37082 0.64802,0.64801"
         style="fill:none;stroke:#000000;stroke-width:1;stroke-linecap:round;stroke-linejoin:round" />
      <path
         inkscape:connector-curvature="0"
         id="polyline4723"
         d="m 352.00972,399.601 c 1.02546,-0.51515 1.63184,-0.71824 2.232,-1.07996 2.87793,-2.18755 6.994,-2.92624 9.864,-5.544 5.00536,-0.55884 6.4091,-7.08761 8.784,-10.944 1.52753,-5.00448 2.77043,-10.00401 4.03198,-15.048 0.56427,-4.3065 0.9649,-8.78636 -1.07998,-12.81604 -1.25962,-5.12663 -3.66589,-10.09681 -5.832,-14.75996 -0.11224,-0.12002 -0.0918,-0.80969 0.35998,0.288"
         style="fill:none;stroke:#000000;stroke-width:1;stroke-linecap:round;stroke-linejoin:round" />
      <path
         inkscape:connector-curvature="0"
         id="polyline4725"
         d="m 370.0817,337.609 c 0.8061,-2.15303 -1.0041,0.63952 -1.51198,0.50404 -1.23545,3.0428 5.98633,2.62306 4.752,0.216 -1.6231,0.38328 -3.36306,-0.94559 -4.46402,-0.072 0.79025,1.51829 3.48586,1.93049 2.52002,-0.288 -0.25726,0.16435 -1.09,-0.25463 -1.29602,0.576"
         style="fill:none;stroke:#000000;stroke-width:1;stroke-linecap:round;stroke-linejoin:round" />
      <path
         inkscape:connector-curvature="0"
         id="polyline4727"
         d="m 367.05772,323.85704 c -0.36613,-2.20876 2.69468,0.0943 3.23998,1.152 1.297,2.29426 4.63422,3.87421 5.54402,5.83195 -0.2051,0.22992 -0.28739,-0.10801 -0.504,-0.0719"
         style="fill:none;stroke:#000000;stroke-width:1;stroke-linecap:round;stroke-linejoin:round" />
      <path
         inkscape:connector-curvature="0"
         id="polyline4729"
         d="m 371.88172,323.13704 c 0.18505,-2.11628 -1.05229,3.07401 -1.51202,3.96 -0.85991,1.4251 -1.19944,3.63841 -1.87198,4.824"
         style="fill:none;stroke:#000000;stroke-width:1;stroke-linecap:round;stroke-linejoin:round" />
      <path
         inkscape:connector-curvature="0"
         id="polyline4731"
         d="m 379.87372,322.63304 c 0.64417,-3.47295 -1.90517,-0.29383 -1.91845,1.36334 -0.62839,2.3112 -0.19475,7.65982 3.28645,6.77266"
         style="fill:none;stroke:#000000;stroke-width:1;stroke-linecap:round;stroke-linejoin:round" />
      <path
         inkscape:connector-curvature="0"
         id="polyline4733"
         d="m 384.4097,322.70501 c 0.0343,-2.1807 -0.15482,3.28877 -0.072,4.17603 0.14171,0.78015 -0.31477,2.10116 0.288,2.592"
         style="fill:none;stroke:#000000;stroke-width:1;stroke-linecap:round;stroke-linejoin:round" />
      <path
         inkscape:connector-curvature="0"
         id="polyline4735"
         d="m 381.67372,327.24104 c 2.12518,-0.0625 3.81011,-1.05791 5.4,-2.376"
         style="fill:none;stroke:#000000;stroke-width:1;stroke-linecap:round;stroke-linejoin:round" />
      <path
         inkscape:connector-curvature="0"
         id="polyline4737"
         d="m 387.5777,320.18504 c 2.69893,1.4219 4.56088,7.10355 1.87778,9.99105 -1.02312,1.1481 -1.78585,2.54257 -2.95776,3.54491"
         style="fill:none;stroke:#000000;stroke-width:1;stroke-linecap:round;stroke-linejoin:round" />
      <path
         inkscape:connector-curvature="0"
         id="polyline4739"
         d="m 377.49772,364.96904 c 0.7068,-1.37593 0.11373,-0.92472 -0.86402,0.288 -1.05703,1.28821 -3.633,4.24231 -4.03198,4.608 1.30164,-1.27519 2.23217,-4.22496 3.24,-4.968 2.93095,0.59515 4.10644,5.18166 4.824,6.69597 l 0,0.28803"
         style="fill:none;stroke:#000000;stroke-width:1;stroke-linecap:round;stroke-linejoin:round" />
      <path
         inkscape:connector-curvature="0"
         id="polyline4741"
         d="m 379.72972,326.23304 c -0.28906,-0.7943 3.79946,-1.73713 4.85866,-3.07733 3.08334,0.44284 2.46461,-0.83786 1.90934,-1.53072"
         style="fill:none;stroke:#000000;stroke-width:1;stroke-linecap:round;stroke-linejoin:round" />
      <path
         inkscape:connector-curvature="0"
         id="polyline4743"
         d="m 383.6897,322.63304 c 1.75147,2.731 0.6279,7.37083 1.728,10.224 l 0,-0.216 0.072,-0.432"
         style="fill:none;stroke:#000000;stroke-width:1;stroke-linecap:round;stroke-linejoin:round" />
      <path
         inkscape:connector-curvature="0"
         id="polyline4745"
         d="m 387.79372,329.32904 c 0.46789,0.48911 0.67296,3.92577 1.00798,5.39995 0.62256,4.33581 -0.13293,-1.14205 -0.33417,-2.76041 -1.60376,-3.48406 3.93819,-3.94178 1.34217,-0.26357 -0.46042,0.5483 -0.95068,1.07277 -1.36798,1.65603"
         style="fill:none;stroke:#000000;stroke-width:1;stroke-linecap:round;stroke-linejoin:round" />
      <path
         inkscape:connector-curvature="0"
         id="polyline4747"
         d="m 206.42571,409.24904 c -0.30414,2.55713 0.1127,6.34439 2.88001,8.208 1.41028,1.27574 2.59414,3.00296 4.392,3.744"
         style="fill:none;stroke:#000000;stroke-width:1;stroke-linecap:round;stroke-linejoin:round" />
      <path
         inkscape:connector-curvature="0"
         id="polyline4749"
         d="m 214.56171,409.96904 c -0.10508,2.77212 2.8163,7.02487 5.18401,8.928"
         style="fill:none;stroke:#000000;stroke-width:1;stroke-linecap:round;stroke-linejoin:round" />
      <path
         inkscape:connector-curvature="0"
         id="polyline4751"
         d="m 221.54572,408.67304 c 0.85441,2.65233 4.1892,7.36964 7.77599,7.70396"
         style="fill:none;stroke:#000000;stroke-width:1;stroke-linecap:round;stroke-linejoin:round" />
      <path
         inkscape:connector-curvature="0"
         id="polyline4753"
         d="m 235.80172,407.88104 c -0.90971,0.0924 0.89278,2.99372 2.088,3.38397 0.76282,1.04297 1.45899,2.11569 2.304,3.09603"
         style="fill:none;stroke:#000000;stroke-width:1;stroke-linecap:round;stroke-linejoin:round" />
      <path
         inkscape:connector-curvature="0"
         id="polyline4755"
         d="m 244.51371,410.32904 c 1.98322,1.89009 4.1243,5.44222 7.416,6.04796"
         style="fill:none;stroke:#000000;stroke-width:1;stroke-linecap:round;stroke-linejoin:round" />
      <path
         inkscape:connector-curvature="0"
         id="polyline4757"
         d="m 256.82572,408.96099 c 0.34834,2.24179 3.12534,4.54184 5.256,5.90405"
         style="fill:none;stroke:#000000;stroke-width:1;stroke-linecap:round;stroke-linejoin:round" />
      <path
         inkscape:connector-curvature="0"
         id="polyline4759"
         d="m 268.84971,408.88904 c -0.10908,2.47557 2.80049,4.60398 4.824,5.544"
         style="fill:none;stroke:#000000;stroke-width:1;stroke-linecap:round;stroke-linejoin:round" />
      <path
         inkscape:connector-curvature="0"
         id="polyline4761"
         d="m 280.65771,407.59301 c 0.89766,0.93231 1.51818,2.09797 2.44801,3.02399"
         style="fill:none;stroke:#000000;stroke-width:1;stroke-linecap:round;stroke-linejoin:round" />
      <path
         inkscape:connector-curvature="0"
         id="polyline4763"
         d="m 219.16972,382.96904 c 0.28873,-3.55659 -3.07356,-6.55525 -1.44001,-10.224 0.0172,-0.62471 -0.0516,-1.25319 0.072,-1.872"
         style="fill:none;stroke:#000000;stroke-width:1;stroke-linecap:round;stroke-linejoin:round" />
      <path
         inkscape:connector-curvature="0"
         id="polyline4765"
         d="m 223.20171,380.377 c -0.2253,-3.36771 -2.30704,-6.91441 0.504,-9.93596"
         style="fill:none;stroke:#000000;stroke-width:1;stroke-linecap:round;stroke-linejoin:round" />
      <path
         inkscape:connector-curvature="0"
         id="polyline4767"
         d="m 230.18572,379.51299 c -0.15174,-3.01287 -0.89482,-6.52929 2.088,-8.49595"
         style="fill:none;stroke:#000000;stroke-width:1;stroke-linecap:round;stroke-linejoin:round" />
      <path
         inkscape:connector-curvature="0"
         id="polyline4769"
         d="m 237.96171,381.45704 c 0.81265,-2.2446 1.53999,-5.6638 3.16801,-6.912"
         style="fill:none;stroke:#000000;stroke-width:1;stroke-linecap:round;stroke-linejoin:round" />
      <path
         inkscape:connector-curvature="0"
         id="polyline4771"
         d="m 247.17771,380.01704 c 0.27706,-0.59528 0.59712,-1.16621 0.93601,-1.72805"
         style="fill:none;stroke:#000000;stroke-width:1;stroke-linecap:round;stroke-linejoin:round" />
      <path
         inkscape:connector-curvature="0"
         id="polyline4773"
         d="m 288.28972,398.377 c 1.06051,0.60913 0.64269,2.60603 1.79998,3.31204"
         style="fill:none;stroke:#000000;stroke-width:1;stroke-linecap:round;stroke-linejoin:round" />
      <path
         inkscape:connector-curvature="0"
         id="polyline4775"
         d="m 300.0257,392.617 c 1.42461,-2.02556 1.05348,4.09051 1.51202,4.89599"
         style="fill:none;stroke:#000000;stroke-width:1;stroke-linecap:round;stroke-linejoin:round" />
      <path
         inkscape:connector-curvature="0"
         id="polyline4777"
         d="m 313.99372,392.68904 c -0.25118,0.20651 -0.3948,3.58571 -0.72,4.82395"
         style="fill:none;stroke:#000000;stroke-width:1;stroke-linecap:round;stroke-linejoin:round" />
      <path
         inkscape:connector-curvature="0"
         id="polyline4779"
         d="m 326.01772,393.12104 c 0.20619,1.28566 -0.30568,4.65476 -1.368,6.408"
         style="fill:none;stroke:#000000;stroke-width:1;stroke-linecap:round;stroke-linejoin:round" />
      <path
         inkscape:connector-curvature="0"
         id="polyline4781"
         d="m 343.87372,392.40099 c 0.73874,0.45074 -1.38716,2.79176 -0.648,4.03205"
         style="fill:none;stroke:#000000;stroke-width:1;stroke-linecap:round;stroke-linejoin:round" />
      <path
         inkscape:connector-curvature="0"
         id="polyline4783"
         d="m 356.4737,390.169 c 1.71199,-0.0978 4.28415,2.46561 4.392,4.32 l -0.14398,0.28804 -0.072,0.28795"
         style="fill:none;stroke:#000000;stroke-width:1;stroke-linecap:round;stroke-linejoin:round" />
      <path
         inkscape:connector-curvature="0"
         id="polyline4785"
         d="m 375.62572,384.33704 c 1.09444,-0.0254 1.59764,4.08486 1.00798,5.688 -0.0105,1.03188 -0.24632,1.97692 -0.64798,2.88"
         style="fill:none;stroke:#000000;stroke-width:1;stroke-linecap:round;stroke-linejoin:round" />
      <path
         inkscape:connector-curvature="0"
         id="polyline4787"
         d="m 297.3617,337.96904 c 0.94678,1.02863 2.52107,5.63525 4.96802,5.832"
         style="fill:none;stroke:#000000;stroke-width:1;stroke-linecap:round;stroke-linejoin:round" />
      <path
         inkscape:connector-curvature="0"
         id="polyline4789"
         d="m 299.3057,330.91304 c 0.69177,2.63187 2.2378,5.62468 4.32002,7.344"
         style="fill:none;stroke:#000000;stroke-width:1;stroke-linecap:round;stroke-linejoin:round" />
      <path
         inkscape:connector-curvature="0"
         id="polyline4791"
         d="m 305.8577,324.21704 c -0.37426,1.96566 1.51201,6.52592 3.96002,7.48797"
         style="fill:none;stroke:#000000;stroke-width:1;stroke-linecap:round;stroke-linejoin:round" />
      <path
         inkscape:connector-curvature="0"
         id="polyline4793"
         d="m 311.83372,319.46504 c 0.18696,1.4441 1.44178,3.98548 2.88,5.25596"
         style="fill:none;stroke:#000000;stroke-width:1;stroke-linecap:round;stroke-linejoin:round" />
      <path
         inkscape:connector-curvature="0"
         id="polyline4795"
         d="m 317.23372,317.30504 c -0.47804,2.9737 2.89735,3.25355 4.608,4.96796"
         style="fill:none;stroke:#000000;stroke-width:1;stroke-linecap:round;stroke-linejoin:round" />
      <path
         inkscape:connector-curvature="0"
         id="polyline4797"
         d="m 327.16972,319.03304 c -0.16328,2.03909 1.12399,4.0951 2.736,5.328"
         style="fill:none;stroke:#000000;stroke-width:1;stroke-linecap:round;stroke-linejoin:round" />
      <path
         inkscape:connector-curvature="0"
         id="polyline4799"
         d="m 332.78572,329.11304 c 1.4254,1.54427 3.01794,3.61348 4.608,5.25597"
         style="fill:none;stroke:#000000;stroke-width:1;stroke-linecap:round;stroke-linejoin:round" />
      <path
         inkscape:connector-curvature="0"
         id="polyline4801"
         d="m 296.1377,351.07304 c -0.6376,-0.19565 2.09341,4.11219 1.87202,4.96797"
         style="fill:none;stroke:#000000;stroke-width:1;stroke-linecap:round;stroke-linejoin:round" />
      <path
         inkscape:connector-curvature="0"
         id="polyline4803"
         d="m 287.92972,363.81701 c 0.003,-2.47942 -0.1302,-1.50735 0.504,0.50403 0.55891,1.56318 1.81685,0.75847 2.304,-0.36005"
         style="fill:none;stroke:#000000;stroke-width:1;stroke-linecap:round;stroke-linejoin:round" />
      <path
         inkscape:connector-curvature="0"
         id="polyline4805"
         d="m 281.37772,363.52904 c 0.91504,-0.24918 1.57505,3.42158 3.384,3.31195"
         style="fill:none;stroke:#000000;stroke-width:1;stroke-linecap:round;stroke-linejoin:round" />
      <path
         inkscape:connector-curvature="0"
         id="polyline4807"
         d="m 290.66572,359.42504 c -0.0305,-0.65146 2.58514,0.3561 2.448,1.368"
         style="fill:none;stroke:#000000;stroke-width:1;stroke-linecap:round;stroke-linejoin:round" />
      <path
         inkscape:connector-curvature="0"
         id="polyline4809"
         d="m 273.45771,364.609 c -0.87663,-0.13082 0.44934,-0.0682 0.64801,-0.14396"
         style="fill:none;stroke:#000000;stroke-width:1;stroke-linecap:round;stroke-linejoin:round" />
      <path
         inkscape:connector-curvature="0"
         id="polyline4811"
         d="m 177.33772,405.937 c 0.48277,-1.93927 -2.13615,-4.23252 -2.62521,-6.45222 -1.90982,-3.19092 -3.43394,-7.66103 -2.05479,-11.33177"
         style="fill:none;stroke:#000000;stroke-width:1;stroke-linecap:round;stroke-linejoin:round" />
      <path
         inkscape:connector-curvature="0"
         id="polyline4813"
         d="m 178.63372,395.85704 c 0.0148,-2.86183 -0.85652,-5.68081 -0.64801,-8.712"
         style="fill:none;stroke:#000000;stroke-width:1;stroke-linecap:round;stroke-linejoin:round" />
      <path
         inkscape:connector-curvature="0"
         id="polyline4815"
         d="m 173.23371,391.609 c -0.0518,-3.19286 1.20271,-7.4714 1.8,-9.93596 l 0,0.216"
         style="fill:none;stroke:#000000;stroke-width:1;stroke-linecap:round;stroke-linejoin:round" />
      <path
         inkscape:connector-curvature="0"
         id="polyline4817"
         d="m 172.08172,400.68104 c -0.51309,0.91923 -1.98104,-2.47994 -2.37601,-3.456 -0.45116,-3.82268 -0.69427,-7.64057 -0.57599,-11.52003"
         style="fill:none;stroke:#000000;stroke-width:1;stroke-linecap:round;stroke-linejoin:round" />
      <path
         inkscape:connector-curvature="0"
         id="polyline4819"
         d="m 165.60172,394.56104 c -2.3335,-1.65689 -1.17988,-6.23092 -2.088,-9.07204 -0.13975,-1.00133 -0.0425,-2.01686 -0.072,-3.02396"
         style="fill:none;stroke:#000000;stroke-width:1;stroke-linecap:round;stroke-linejoin:round" />
      <path
         inkscape:connector-curvature="0"
         id="polyline4821"
         d="m 158.54572,385.20104 c -1.51786,-3.80329 -1.22128,-8.43995 -0.576,-12.60004 0.31295,-1.2291 0.29601,-2.50494 0.576,-3.74396"
         style="fill:none;stroke:#000000;stroke-width:1;stroke-linecap:round;stroke-linejoin:round" />
      <path
         inkscape:connector-curvature="0"
         id="polyline4823"
         d="m 154.00971,371.44904 c -1.24581,-2.65232 -2.09277,-8.22373 -0.14399,-11.16005"
         style="fill:none;stroke:#000000;stroke-width:1;stroke-linecap:round;stroke-linejoin:round" />
      <path
         inkscape:connector-curvature="0"
         id="polyline4825"
         d="m 150.48172,361.22504 c 0.0148,-4.38074 -1.16552,-9.26087 2.952,-12.38405"
         style="fill:none;stroke:#000000;stroke-width:1;stroke-linecap:round;stroke-linejoin:round" />
      <path
         inkscape:connector-curvature="0"
         id="polyline4827"
         d="m 151.20172,348.33704 c 0.59848,-0.5666 1.31765,-0.97894 1.94399,-1.51204"
         style="fill:none;stroke:#000000;stroke-width:1;stroke-linecap:round;stroke-linejoin:round" />
      <path
         inkscape:connector-curvature="0"
         id="polyline4829"
         d="m 165.60172,318.385 c 1.76667,-2.98789 3.49064,1.88305 4.80937,3.0134 0.50917,0.53421 0.7818,1.45182 1.45463,1.73864"
         style="fill:none;stroke:#000000;stroke-width:1;stroke-linecap:round;stroke-linejoin:round" />
      <path
         inkscape:connector-curvature="0"
         id="polyline4831"
         d="m 167.90572,312.62499 c 1.29352,-1.04472 2.87227,2.42154 3.38399,3.67205 0.34215,0.72789 0.84958,1.22272 0.86401,2.08796"
         style="fill:none;stroke:#000000;stroke-width:1;stroke-linecap:round;stroke-linejoin:round" />
      <path
         inkscape:connector-curvature="0"
         id="polyline4833"
         d="m 171.57772,308.80904 c 2.60116,-1.80779 3.89118,2.61893 5.18399,4.03195"
         style="fill:none;stroke:#000000;stroke-width:1;stroke-linecap:round;stroke-linejoin:round" />
      <path
         inkscape:connector-curvature="0"
         id="polyline4835"
         d="m 184.68172,304.34504 c -0.35686,-3.47719 1.26216,3.66758 0.57599,3.744"
         style="fill:none;stroke:#000000;stroke-width:1;stroke-linecap:round;stroke-linejoin:round" />
      <path
         inkscape:connector-curvature="0"
         id="polyline4837"
         d="m 181.36971,303.12104 c -0.0247,-1.15251 -0.42556,2.83082 0.504,3.672"
         style="fill:none;stroke:#000000;stroke-width:1;stroke-linecap:round;stroke-linejoin:round" />
      <path
         inkscape:connector-curvature="0"
         id="polyline4839"
         d="m 192.31371,304.77704 c -0.53583,-2.60346 1.67889,-1.89733 2.37601,-4.32"
         style="fill:none;stroke:#000000;stroke-width:1;stroke-linecap:round;stroke-linejoin:round" />
      <path
         inkscape:connector-curvature="0"
         id="polyline4841"
         d="m 197.64172,303.19304 c 1.15679,-0.65251 2.60928,-2.2759 2.95199,-4.32 0.41102,-0.28216 0.49287,-0.77873 0.57601,-1.224"
         style="fill:none;stroke:#000000;stroke-width:1;stroke-linecap:round;stroke-linejoin:round" />
      <path
         inkscape:connector-curvature="0"
         id="polyline4843"
         d="m 205.48972,302.47304 c 1.18286,-0.56682 1.45164,-2.53894 2.952,-2.88003"
         style="fill:none;stroke:#000000;stroke-width:1;stroke-linecap:round;stroke-linejoin:round" />
      <path
         inkscape:connector-curvature="0"
         id="polyline4845"
         d="m 175.32172,439.70501 c 0.44003,-1.45292 1.33561,1.61401 0.93599,2.52003 0.91685,2.52958 0.0949,5.82583 -0.216,7.84795 0.70682,-0.30209 2.74549,-1.96291 4.03201,-3.02399 9.39161,-6.10472 20.90288,-9.15843 29.232,-16.91996 2.68003,-1.51815 5.65084,-2.43673 8.136,-4.32 4.89123,-1.52501 8.87918,-5.52256 14.256,-5.97604 0.38194,-0.30834 0.86232,-0.37674 0.432,0.43201"
         style="fill:none;stroke:#000000;stroke-width:1;stroke-linecap:round;stroke-linejoin:round" />
      <path
         inkscape:connector-curvature="0"
         id="polyline4847"
         d="m 259.63372,364.96904 c -0.11711,1.56962 0.10078,3.13169 0.43199,4.608"
         style="fill:none;stroke:#000000;stroke-width:1;stroke-linecap:round;stroke-linejoin:round" />
      <path
         inkscape:connector-curvature="0"
         id="polyline4849"
         d="m 260.64172,376.77704 c 0.86191,0.86496 0.66288,3.40925 0.72,5.03997"
         style="fill:none;stroke:#000000;stroke-width:1;stroke-linecap:round;stroke-linejoin:round" />
      <path
         inkscape:connector-curvature="0"
         id="polyline4851"
         d="m 260.64172,386.78504 c 0.42788,1.54926 0.52655,3.8777 0.36,5.76 -0.61195,-0.30599 0.18804,0.0252 0.64799,0.216"
         style="fill:none;stroke:#000000;stroke-width:1;stroke-linecap:round;stroke-linejoin:round" />
      <path
         inkscape:connector-curvature="0"
         id="polyline4853"
         d="m 244.15371,414.721 c 1.36612,-1.03592 3.23712,-2.5474 4.82401,-3.81596 l 0.36,0.432"
         style="fill:none;stroke:#000000;stroke-width:1;stroke-linecap:round;stroke-linejoin:round" />
      <path
         inkscape:connector-curvature="0"
         id="polyline4855"
         d="m 254.23371,410.97704 c 0.86706,-0.64548 1.1684,-1.86295 2.37601,-1.80005"
         style="fill:none;stroke:#000000;stroke-width:1;stroke-linecap:round;stroke-linejoin:round" />
    </g>
  </g>
</svg>
